# Blender v2.92.0 OBJ File: ''
# www.blender.org
mtllib FrontMadera.mtl
o Plane.097_Plane.098
v 17.685810 0.375942 -4.002071
v 17.786095 0.375942 -4.002071
v 17.685810 0.375942 -4.102355
v 17.786095 0.375942 -4.102355
v 17.685810 4.558363 -4.102356
v 17.685810 4.558363 -4.002072
v 17.786095 4.558363 -4.002072
v 17.786095 4.558363 -4.102356
v 17.771870 0.375942 -5.629204
v 18.000055 0.375942 -5.629204
v 17.771870 0.375942 -5.828941
v 18.000055 0.375942 -5.828941
v 17.771870 6.504432 -5.828942
v 17.771870 6.504432 -5.629205
v 18.000055 6.504432 -5.629205
v 18.000055 6.504432 -5.828942
v 17.771873 0.375942 -7.745804
v 18.000055 0.375942 -7.745804
v 17.771873 0.375942 -7.945541
v 18.000055 0.375942 -7.945541
v 17.771873 6.573450 -7.945542
v 17.771873 6.573450 -7.745805
v 18.000055 6.573450 -7.745805
v 18.000055 6.573450 -7.945542
v 17.786095 2.672741 -11.188675
v 17.985830 2.672741 -11.188675
v 17.786095 2.872478 -11.188675
v 17.985830 2.872478 -11.188675
v 17.786095 2.872479 -2.386075
v 17.786095 2.672742 -2.386075
v 17.985830 2.672742 -2.386075
v 17.985830 2.872479 -2.386075
v 17.685810 0.375942 -9.537827
v 17.786095 0.375942 -9.537827
v 17.685810 0.375942 -9.638110
v 17.786095 0.375942 -9.638110
v 17.685810 4.558363 -9.638111
v 17.685810 4.558363 -9.537827
v 17.786095 4.558363 -9.537827
v 17.786095 4.558363 -9.638111
v 17.685810 1.229948 -11.188675
v 17.786095 1.229948 -11.188675
v 17.685810 1.330232 -11.188675
v 17.786095 1.330232 -11.188675
v 17.685810 1.330232 -7.945543
v 17.685810 1.229949 -7.945543
v 17.786095 1.229949 -7.945543
v 17.786095 1.330232 -7.945543
v 17.685810 1.229948 -5.629204
v 17.786095 1.229948 -5.629204
v 17.685810 1.330232 -5.629204
v 17.786095 1.330232 -5.629204
v 17.685810 1.330232 -2.386072
v 17.685810 1.229949 -2.386072
v 17.786095 1.229949 -2.386072
v 17.786095 1.330232 -2.386072
v 17.701761 4.558361 -9.638111
v 17.790438 4.558361 -9.638111
v 17.701761 4.638348 -9.638111
v 17.790438 4.638348 -9.638111
v 17.701761 4.638349 -4.002072
v 17.701761 4.558362 -4.002072
v 17.790438 4.558362 -4.002072
v 17.790438 4.638349 -4.002072
v 17.706106 5.882831 -8.312440
v 17.786093 5.882831 -8.312440
v 17.706106 5.962817 -8.312440
v 17.786093 5.962817 -8.312440
v 17.706106 5.962818 -5.284986
v 17.706106 5.882831 -5.284986
v 17.786093 5.882831 -5.284986
v 17.786093 5.962818 -5.284986
v 17.706106 7.472208 -6.819369
v 17.786093 7.472208 -6.819369
v 17.706106 7.472208 -6.739383
v 17.786093 7.472208 -6.739383
v 17.706106 0.376941 -6.739382
v 17.706106 0.376941 -6.819368
v 17.786093 0.376941 -6.819368
v 17.786093 0.376941 -6.739382
vt 0.658174 0.444237
vt 0.680959 0.467021
vt 0.658174 0.467021
vt 0.430512 0.473054
vt 0.453297 0.450269
vt 0.453297 0.473054
vt 0.498867 -0.500000
vt 0.476082 0.450269
vt 0.476082 -0.500000
vt 0.521652 -0.500000
vt 0.498867 0.450269
vt 0.498867 -0.500000
vt 0.544437 -0.500000
vt 0.521652 0.450269
vt 0.567222 -0.500000
vt 0.544437 0.450269
vt 0.544437 -0.500000
vt 0.658174 0.288703
vt 0.612792 0.340548
vt 0.612792 0.288703
vt 0.612792 0.236858
vt 0.658174 0.288703
vt 0.612792 0.288703
vt 0.281175 -0.500000
vt 0.235794 0.892427
vt 0.235794 -0.500000
vt 0.235794 -0.500000
vt 0.190412 0.892427
vt 0.190412 -0.500000
vt 0.099649 -0.500000
vt 0.047804 0.892427
vt 0.047805 -0.500000
vt 0.047804 -0.500000
vt -0.004041 0.892427
vt -0.004041 -0.500000
vt 0.658173 0.392392
vt 0.612792 0.444236
vt 0.612792 0.392392
vt 0.612792 0.340548
vt 0.658173 0.392392
vt 0.612792 0.392392
vt 0.145031 -0.500000
vt 0.099650 0.908108
vt 0.099650 -0.500000
vt 0.190412 -0.500000
vt 0.145031 0.908108
vt 0.145031 -0.500000
vt -0.055885 -0.500000
vt -0.107730 0.908108
vt -0.107730 -0.500000
vt -0.004041 -0.500000
vt -0.055885 0.908108
vt -0.055885 -0.500000
vt 0.703555 0.282239
vt 0.658174 0.236858
vt 0.703555 0.236858
vt 0.658174 0.444237
vt 0.612792 0.489618
vt 0.612792 0.444237
vt -0.153111 -0.500000
vt -0.198492 1.500000
vt -0.198492 -0.500000
vt -0.153111 1.500000
vt -0.107730 -0.500000
vt -0.107730 1.500000
vt -0.243874 -0.500000
vt -0.289255 1.500000
vt -0.289255 -0.500000
vt -0.243874 1.500000
vt -0.243874 -0.500000
vt 0.658174 0.392392
vt 0.680959 0.415177
vt 0.658174 0.415177
vt 0.658174 0.437963
vt 0.680959 0.415177
vt 0.680959 0.437963
vt 0.590007 -0.500000
vt 0.567222 0.450269
vt 0.567222 -0.500000
vt 0.612792 -0.500000
vt 0.590007 0.450269
vt 0.590007 -0.500000
vt 0.476083 -0.500000
vt 0.453297 0.450269
vt 0.453297 -0.500000
vt 0.453297 -0.500000
vt 0.430512 0.450269
vt 0.430512 -0.500000
vt 0.680959 0.350594
vt 0.658174 0.327809
vt 0.680959 0.327809
vt 0.680959 0.282239
vt 0.658174 0.305024
vt 0.658174 0.282239
vt 0.703932 -0.500000
vt 0.681147 0.236857
vt 0.681147 -0.500000
vt 0.635577 -0.500000
vt 0.612792 0.236857
vt 0.612792 -0.500000
vt 0.772287 -0.500000
vt 0.749502 0.236857
vt 0.749502 -0.500000
vt 0.726717 0.236857
vt 0.749502 -0.500000
vt 0.749502 0.236857
vt 0.680959 0.327809
vt 0.658174 0.305024
vt 0.680959 0.305024
vt 0.680959 0.350594
vt 0.658174 0.373379
vt 0.658174 0.350594
vt 0.681147 -0.500000
vt 0.658362 0.236858
vt 0.658362 -0.500000
vt 0.658362 -0.500000
vt 0.635577 0.236858
vt 0.635577 -0.500000
vt 0.795072 -0.500000
vt 0.772287 0.236858
vt 0.772287 -0.500000
vt 0.703932 0.236858
vt 0.726717 -0.500000
vt 0.726717 0.236858
vt 0.453297 0.470417
vt 0.471471 0.450269
vt 0.471471 0.470417
vt 0.517040 0.470417
vt 0.498867 0.450269
vt 0.517040 0.450269
vt 0.412338 0.780540
vt 0.430511 -0.500000
vt 0.430511 0.780540
vt 0.412338 -0.500000
vt 0.394165 0.780540
vt 0.394165 -0.500000
vt 0.374017 -0.500000
vt 0.353869 0.780540
vt 0.353869 -0.500000
vt 0.394165 -0.500000
vt 0.374017 0.780540
vt 0.374017 -0.500000
vt 0.480694 0.468443
vt 0.498867 0.450269
vt 0.498867 0.468443
vt 0.676347 0.373379
vt 0.658174 0.391552
vt 0.658174 0.373379
vt 0.795072 0.187855
vt 0.813245 -0.500000
vt 0.813245 0.187855
vt 0.831419 -0.500000
vt 0.813245 0.187854
vt 0.813245 -0.500000
vt 0.867766 -0.500000
vt 0.849593 0.187854
vt 0.849593 -0.500000
vt 0.849593 -0.500000
vt 0.831419 0.187854
vt 0.562610 0.450269
vt 0.544437 0.468443
vt 0.544437 0.450269
vt 0.521652 0.450269
vt 0.539825 0.468443
vt 0.521652 0.468443
vt 0.299349 1.112084
vt 0.317522 -0.500000
vt 0.317522 1.112084
vt 0.335696 1.112084
vt 0.353870 -0.500000
vt 0.353869 1.112084
vt 0.281175 1.112084
vt 0.299349 -0.500000
vt 0.335696 -0.500000
vt 0.680959 0.444237
vt 0.430512 0.450269
vt 0.498867 0.450269
vt 0.544437 0.450269
vt 0.567222 0.450269
vt 0.658174 0.340548
vt 0.658174 0.236858
vt 0.281175 0.892427
vt 0.235793 0.892427
vt 0.099649 0.892427
vt 0.047804 0.892427
vt 0.658173 0.444236
vt 0.658173 0.340548
vt 0.145031 0.908108
vt 0.190412 0.908108
vt -0.055885 0.908108
vt -0.004041 0.908108
vt 0.658174 0.282239
vt 0.658174 0.489618
vt -0.153111 1.500000
vt -0.153111 -0.500000
vt -0.243874 1.500000
vt 0.680959 0.392392
vt 0.658174 0.415177
vt 0.590007 0.450269
vt 0.612792 0.450269
vt 0.476083 0.450269
vt 0.453297 0.450269
vt 0.658174 0.350594
vt 0.680959 0.305024
vt 0.703932 0.236857
vt 0.635577 0.236857
vt 0.772287 0.236857
vt 0.726717 -0.500000
vt 0.658174 0.327809
vt 0.680959 0.373379
vt 0.681147 0.236858
vt 0.658362 0.236858
vt 0.795072 0.236858
vt 0.703932 -0.500000
vt 0.453297 0.450269
vt 0.498867 0.470417
vt 0.412338 -0.500000
vt 0.412338 0.780540
vt 0.374017 0.780540
vt 0.394165 0.780540
vt 0.480694 0.450269
vt 0.676347 0.391552
vt 0.795072 -0.500000
vt 0.867766 0.187854
vt 0.849593 0.187854
vt 0.562610 0.468443
vt 0.539825 0.450269
vt 0.281175 -0.500000
vn 0.0000 -1.0000 0.0000
vn 0.0000 1.0000 0.0000
vn 0.0000 -0.0000 -1.0000
vn 0.0000 0.0000 1.0000
vn 1.0000 -0.0000 0.0000
vn -1.0000 -0.0000 0.0000
usemtl MaderaClarita
s 1
f 3/1/1 2/2/1 1/3/1
f 7/4/2 5/5/2 6/6/2
f 3/7/3 8/8/3 4/9/3
f 2/10/4 6/11/4 1/12/4
f 4/13/5 7/14/5 2/10/5
f 1/15/6 5/16/6 3/17/6
f 11/18/1 10/19/1 9/20/1
f 15/21/2 13/22/2 14/23/2
f 12/24/5 15/25/5 10/26/5
f 9/27/6 13/28/6 11/29/6
f 11/30/3 16/31/3 12/32/3
f 10/33/4 14/34/4 9/35/4
f 19/36/1 18/37/1 17/38/1
f 23/39/2 21/40/2 22/41/2
f 20/42/5 23/43/5 18/44/5
f 17/45/6 21/46/6 19/47/6
f 19/48/3 24/49/3 20/50/3
f 18/51/4 22/52/4 17/53/4
f 27/54/3 26/55/3 25/56/3
f 31/57/4 29/58/4 30/59/4
f 28/60/5 31/61/5 26/62/5
f 25/63/6 29/64/6 27/65/6
f 27/66/2 32/67/2 28/68/2
f 26/62/1 30/69/1 25/70/1
f 35/71/1 34/72/1 33/73/1
f 39/74/2 37/75/2 38/76/2
f 35/77/3 40/78/3 36/79/3
f 34/80/4 38/81/4 33/82/4
f 36/83/5 39/84/5 34/85/5
f 33/86/6 37/87/6 35/88/6
f 43/89/3 42/90/3 41/91/3
f 47/92/4 45/93/4 46/94/4
f 43/95/2 48/96/2 44/97/2
f 42/98/1 46/99/1 41/100/1
f 44/101/5 47/102/5 42/103/5
f 41/104/6 45/105/6 43/106/6
f 51/107/3 50/108/3 49/109/3
f 55/110/4 53/111/4 54/112/4
f 51/113/2 56/114/2 52/115/2
f 50/116/1 54/117/1 49/118/1
f 52/119/5 55/120/5 50/121/5
f 49/122/6 53/123/6 51/124/6
f 59/125/3 58/126/3 57/127/3
f 63/128/4 61/129/4 62/130/4
f 60/131/5 63/132/5 58/133/5
f 57/134/6 61/135/6 59/136/6
f 59/137/2 64/138/2 60/139/2
f 58/140/1 62/141/1 57/142/1
f 67/143/3 66/144/3 65/145/3
f 71/146/4 69/147/4 70/148/4
f 68/149/5 71/150/5 66/151/5
f 65/152/6 69/153/6 67/154/6
f 67/155/2 72/156/2 68/157/2
f 66/158/1 70/159/1 65/152/1
f 75/160/2 74/161/2 73/162/2
f 79/163/1 77/164/1 78/165/1
f 76/166/5 79/167/5 74/168/5
f 73/169/6 77/170/6 75/171/6
f 75/172/4 80/173/4 76/166/4
f 74/168/3 78/174/3 73/169/3
f 3/1/1 4/175/1 2/2/1
f 7/4/2 8/176/2 5/5/2
f 3/7/3 5/177/3 8/8/3
f 2/10/4 7/14/4 6/11/4
f 4/13/5 8/178/5 7/14/5
f 1/15/6 6/179/6 5/16/6
f 11/18/1 12/180/1 10/19/1
f 15/21/2 16/181/2 13/22/2
f 12/24/5 16/182/5 15/25/5
f 9/27/6 14/183/6 13/28/6
f 11/30/3 13/184/3 16/31/3
f 10/33/4 15/185/4 14/34/4
f 19/36/1 20/186/1 18/37/1
f 23/39/2 24/187/2 21/40/2
f 20/42/5 24/188/5 23/43/5
f 17/45/6 22/189/6 21/46/6
f 19/48/3 21/190/3 24/49/3
f 18/51/4 23/191/4 22/52/4
f 27/54/3 28/192/3 26/55/3
f 31/57/4 32/193/4 29/58/4
f 28/60/5 32/194/5 31/61/5
f 25/63/6 30/195/6 29/64/6
f 27/66/2 29/196/2 32/67/2
f 26/62/1 31/61/1 30/69/1
f 35/71/1 36/197/1 34/72/1
f 39/74/2 40/198/2 37/75/2
f 35/77/3 37/199/3 40/78/3
f 34/80/4 39/200/4 38/81/4
f 36/83/5 40/201/5 39/84/5
f 33/86/6 38/202/6 37/87/6
f 43/89/3 44/203/3 42/90/3
f 47/92/4 48/204/4 45/93/4
f 43/95/2 45/205/2 48/96/2
f 42/98/1 47/206/1 46/99/1
f 44/101/5 48/207/5 47/102/5
f 41/104/6 46/208/6 45/105/6
f 51/107/3 52/209/3 50/108/3
f 55/110/4 56/210/4 53/111/4
f 51/113/2 53/211/2 56/114/2
f 50/116/1 55/212/1 54/117/1
f 52/119/5 56/213/5 55/120/5
f 49/122/6 54/214/6 53/123/6
f 59/125/3 60/215/3 58/126/3
f 63/128/4 64/216/4 61/129/4
f 60/131/5 64/217/5 63/132/5
f 57/134/6 62/218/6 61/135/6
f 59/137/2 61/219/2 64/138/2
f 58/140/1 63/220/1 62/141/1
f 67/143/3 68/221/3 66/144/3
f 71/146/4 72/222/4 69/147/4
f 68/149/5 72/223/5 71/150/5
f 65/152/6 70/159/6 69/153/6
f 67/155/2 69/224/2 72/156/2
f 66/158/1 71/225/1 70/159/1
f 75/160/2 76/226/2 74/161/2
f 79/163/1 80/227/1 77/164/1
f 76/166/5 80/173/5 79/167/5
f 73/169/6 78/174/6 77/170/6
f 75/172/4 77/228/4 80/173/4
f 74/168/3 79/167/3 78/174/3
