# Blender v2.92.0 OBJ File: ''
# www.blender.org
mtllib MaderaMarcos.mtl
o Plane.117_Plane.121
v 14.834052 0.376740 -2.312082
v 14.884030 0.376740 -2.312082
v 14.834052 0.376740 -2.362061
v 14.884030 0.376740 -2.362061
v 14.834052 2.323290 -2.362061
v 14.834052 2.323290 -2.312082
v 14.884030 2.323290 -2.312082
v 14.884030 2.323290 -2.362061
v 13.809744 0.376740 -2.311328
v 13.859724 0.376740 -2.311328
v 13.809744 0.376740 -2.361307
v 13.859724 0.376740 -2.361307
v 13.809744 2.373270 -2.361308
v 13.809744 2.373270 -2.311328
v 13.859724 2.323290 -2.311328
v 13.859724 2.323290 -2.361308
v 15.935855 0.376740 -2.311328
v 15.985833 0.376740 -2.311328
v 15.935855 0.376740 -2.361307
v 15.985833 0.376740 -2.361307
v 15.935855 2.323290 -2.361308
v 15.935855 2.323290 -2.311328
v 15.985833 2.373270 -2.311328
v 15.985833 2.373270 -2.361308
v 13.809743 2.373270 -2.311328
v 13.859726 2.323291 -2.311328
v 13.809743 2.373270 -2.361308
v 13.859726 2.323291 -2.361308
v 15.985832 2.373270 -2.361308
v 15.985832 2.373270 -2.311328
v 15.935852 2.323290 -2.311328
v 15.935852 2.323290 -2.361308
v 6.811198 0.376740 -2.312082
v 6.861176 0.376740 -2.312082
v 6.811198 0.376740 -2.362061
v 6.861176 0.376740 -2.362061
v 6.811198 2.373270 -2.362061
v 6.811198 2.373270 -2.312082
v 6.861176 2.323290 -2.312082
v 6.861176 2.323290 -2.362061
v 9.261850 0.376740 -2.312082
v 9.311831 0.376740 -2.312082
v 9.261850 0.376740 -2.362061
v 9.311831 0.376740 -2.362061
v 9.261850 2.323290 -2.362061
v 9.261850 2.323290 -2.312082
v 9.311831 2.373270 -2.312082
v 9.311831 2.373270 -2.362061
v 6.811193 2.373270 -2.312082
v 6.861176 2.323291 -2.312082
v 6.811193 2.373270 -2.362061
v 6.861176 2.323291 -2.362061
v 9.311829 2.373270 -2.362061
v 9.311829 2.373270 -2.312082
v 9.261848 2.323290 -2.312082
v 9.261848 2.323290 -2.362061
v 8.052134 0.376740 -2.312082
v 8.102114 0.376740 -2.312082
v 8.052134 0.376740 -2.362061
v 8.102114 0.376740 -2.362061
v 8.052134 2.323290 -2.362061
v 8.052134 2.323290 -2.312082
v 8.102114 2.323290 -2.312082
v 8.102114 2.323290 -2.362061
v 8.052134 0.376740 -11.213598
v 8.102114 0.376740 -11.213598
v 8.052134 0.376740 -11.263577
v 8.102114 0.376740 -11.263577
v 8.052134 2.323290 -11.263577
v 8.052134 2.323290 -11.213598
v 8.102114 2.323290 -11.213598
v 8.102114 2.323290 -11.263577
v 6.811198 0.376740 -11.213598
v 6.861176 0.376740 -11.213598
v 6.811198 0.376740 -11.263577
v 6.861176 0.376740 -11.263577
v 6.811198 2.373270 -11.263577
v 6.811198 2.373270 -11.213598
v 6.861176 2.323290 -11.213598
v 6.861176 2.323290 -11.263577
v 9.261850 0.376740 -11.213598
v 9.311831 0.376740 -11.213598
v 9.261850 0.376740 -11.263577
v 9.311831 0.376740 -11.263577
v 9.261850 2.323290 -11.263577
v 9.261850 2.323290 -11.213598
v 9.311831 2.373270 -11.213598
v 9.311831 2.373270 -11.263577
v 6.811193 2.373270 -11.213598
v 6.861176 2.323291 -11.213598
v 6.811193 2.373270 -11.263577
v 6.861176 2.323291 -11.263577
v 9.311829 2.373270 -11.263577
v 9.311829 2.373270 -11.213598
v 9.261848 2.323290 -11.213598
v 9.261848 2.323290 -11.263577
v 13.809744 0.376740 -11.213598
v 13.859724 0.376740 -11.213598
v 13.809744 0.376740 -11.263577
v 13.859724 0.376740 -11.263577
v 13.809744 2.373270 -11.263577
v 13.809744 2.373270 -11.213598
v 13.859724 2.323290 -11.213598
v 13.859724 2.323290 -11.263577
v 15.935855 0.376740 -11.213598
v 15.985833 0.376740 -11.213598
v 15.935855 0.376740 -11.263577
v 15.985833 0.376740 -11.263577
v 15.935855 2.323290 -11.263577
v 15.935855 2.323290 -11.213598
v 15.985833 2.373270 -11.213598
v 15.985833 2.373270 -11.263577
v 13.809743 2.373270 -11.213598
v 13.859726 2.323291 -11.213598
v 13.809743 2.373270 -11.263577
v 13.859726 2.323291 -11.263577
v 15.985832 2.373270 -11.263577
v 15.985832 2.373270 -11.213598
v 15.935852 2.323290 -11.213598
v 15.935852 2.323290 -11.263577
v 14.834052 0.376740 -11.213598
v 14.884030 0.376740 -11.213598
v 14.834052 0.376740 -11.263577
v 14.884030 0.376740 -11.263577
v 14.834052 2.323290 -11.263577
v 14.834052 2.323290 -11.213598
v 14.884030 2.323290 -11.213598
v 14.884030 2.323290 -11.263577
vt 0.343750 0.624177
vt 0.359375 0.639802
vt 0.343750 0.639802
vt 0.312500 0.639802
vt 0.328125 0.624177
vt 0.328125 0.639802
vt 0.781250 0.000000
vt 0.765625 0.608552
vt 0.765625 0.000000
vt 0.796875 0.000000
vt 0.781250 0.608552
vt 0.781250 0.000000
vt 0.812500 0.000000
vt 0.796875 0.608552
vt 0.828125 0.000000
vt 0.812500 0.608552
vt 0.812500 0.000000
vt 0.281250 0.624177
vt 0.296875 0.639802
vt 0.281250 0.639802
vt 0.390626 0.608552
vt 0.406251 0.624177
vt 0.390626 0.624177
vt 0.281250 0.000000
vt 0.265625 0.608552
vt 0.265625 0.000000
vt 0.484376 0.624177
vt 0.468751 0.015625
vt 0.484376 0.000000
vt 0.406251 0.000000
vt 0.390626 0.000000
vt 0.296875 0.000000
vt 0.281250 0.624177
vt 0.343750 0.624177
vt 0.328125 0.639802
vt 0.328125 0.624177
vt 0.343750 0.624177
vt 0.328125 0.608552
vt 0.343750 0.608552
vt 0.546876 0.624177
vt 0.531251 0.015625
vt 0.546876 0.000000
vt 0.421876 0.000000
vt 0.406251 0.608552
vt 0.406251 0.000000
vt 0.359376 0.000000
vt 0.343751 0.000000
vt 0.343751 0.000000
vt 0.328126 0.000000
vt 0.218750 0.000000
vt 0.203125 0.015626
vt 0.203125 0.000000
vt 0.203125 0.664688
vt 0.218750 0.680313
vt 0.203125 0.680313
vt 0.125000 0.015626
vt 0.140625 0.680313
vt 0.125000 0.664688
vt 0.187500 0.664687
vt 0.203125 0.000000
vt 0.203125 0.680313
vt 0.218750 0.015626
vt 0.171875 0.680313
vt 0.187500 0.000000
vt 0.187500 0.680313
vt 0.468751 0.624177
vt 0.484376 0.639802
vt 0.468751 0.639802
vt 0.312500 0.608552
vt 0.328125 0.624177
vt 0.312500 0.624177
vt 0.750000 0.000000
vt 0.734375 0.608552
vt 0.734375 0.000000
vt 0.734375 0.624177
vt 0.718750 0.015625
vt 0.734375 0.000000
vt 0.328125 0.000000
vt 0.312500 0.000000
vt 0.390626 0.000000
vt 0.375001 0.624177
vt 0.375001 0.000000
vt 0.265625 0.624177
vt 0.250000 0.639802
vt 0.250000 0.624177
vt 0.375001 0.624177
vt 0.359376 0.608552
vt 0.375001 0.608552
vt 0.453126 0.624177
vt 0.437501 0.015625
vt 0.453126 0.000000
vt 0.531251 0.000000
vt 0.515626 0.608552
vt 0.515626 0.000000
vt 0.312500 0.000000
vt 0.296875 0.624177
vt 0.296875 0.000000
vt 0.375001 0.000000
vt 0.359376 0.000000
vt 0.046875 0.000000
vt 0.031250 0.015626
vt 0.031250 0.000000
vt 0.031250 0.766151
vt 0.046875 0.781776
vt 0.031250 0.781776
vt 0.000000 0.015626
vt 0.015625 0.781776
vt 0.000000 0.766151
vt 0.078125 0.766150
vt 0.093750 0.000000
vt 0.093750 0.781777
vt 0.046875 0.015626
vt 0.046875 0.781777
vt 0.062500 0.000000
vt 0.062500 0.781777
vt 0.281250 0.624177
vt 0.265625 0.639802
vt 0.265625 0.624177
vt 0.296875 0.624177
vt 0.312500 0.639802
vt 0.296875 0.639802
vt 0.906250 0.000000
vt 0.890625 0.608552
vt 0.890625 0.000000
vt 0.921875 0.000000
vt 0.906250 0.608552
vt 0.906250 0.000000
vt 0.843750 0.000000
vt 0.828125 0.608552
vt 0.828125 0.000000
vt 0.859375 0.000000
vt 0.843750 0.608552
vt 0.843750 0.000000
vt 0.437501 0.624177
vt 0.421876 0.639802
vt 0.421876 0.624177
vt 0.375000 0.624177
vt 0.390625 0.639802
vt 0.375000 0.639802
vt 0.937500 0.000000
vt 0.921875 0.608552
vt 0.921875 0.000000
vt 0.890625 0.000000
vt 0.875000 0.608552
vt 0.875000 0.000000
vt 1.000000 0.000000
vt 0.984375 0.608552
vt 0.984375 0.000000
vt 0.984375 0.000000
vt 0.968750 0.608552
vt 0.968750 0.000000
vt 0.484375 0.624177
vt 0.500000 0.639802
vt 0.484375 0.639802
vt 0.671875 0.608552
vt 0.687500 0.624177
vt 0.671875 0.624177
vt 0.718750 0.000000
vt 0.703125 0.608552
vt 0.703125 0.000000
vt 0.703126 0.624177
vt 0.687501 0.015625
vt 0.703126 0.000000
vt 0.687500 0.000000
vt 0.671875 0.000000
vt 0.625001 0.000000
vt 0.609376 0.624177
vt 0.609376 0.000000
vt 0.406250 0.624177
vt 0.390625 0.639802
vt 0.390625 0.624177
vt 0.671876 0.624177
vt 0.656251 0.608552
vt 0.671876 0.608552
vt 0.515626 0.624177
vt 0.500001 0.015625
vt 0.515626 0.000000
vt 0.468751 0.000000
vt 0.453126 0.608552
vt 0.453126 0.000000
vt 0.609376 0.000000
vt 0.593751 0.624177
vt 0.593751 0.000000
vt 0.671876 0.000000
vt 0.656251 0.000000
vt 0.109375 0.000000
vt 0.093750 0.015626
vt 0.093750 0.000000
vt 0.093750 0.766151
vt 0.109375 0.781776
vt 0.093750 0.781776
vt 0.015625 0.015626
vt 0.031250 0.781776
vt 0.015625 0.766151
vt 0.062500 0.766150
vt 0.078125 0.000000
vt 0.078125 0.781777
vt 0.109375 0.015626
vt 0.109375 0.781777
vt 0.125000 0.000000
vt 0.125000 0.781777
vt 0.375000 0.624177
vt 0.359375 0.639802
vt 0.359375 0.624177
vt 0.562501 0.608552
vt 0.578126 0.624177
vt 0.562501 0.624177
vt 0.265625 0.000000
vt 0.250000 0.608552
vt 0.250000 0.000000
vt 0.500001 0.624177
vt 0.484376 0.015625
vt 0.500001 0.000000
vt 0.578126 0.000000
vt 0.562501 0.000000
vt 0.640626 0.000000
vt 0.625001 0.624177
vt 0.625001 0.000000
vt 0.468751 0.624177
vt 0.453126 0.639802
vt 0.453126 0.624177
vt 0.656251 0.624177
vt 0.640626 0.608552
vt 0.656251 0.608552
vt 0.562501 0.624177
vt 0.546876 0.015625
vt 0.562501 0.000000
vt 0.437501 0.000000
vt 0.421876 0.608552
vt 0.421876 0.000000
vt 0.593751 0.000000
vt 0.578126 0.624177
vt 0.578126 0.000000
vt 0.656251 0.000000
vt 0.640626 0.000000
vt 0.234375 0.000000
vt 0.218750 0.015626
vt 0.218750 0.000000
vt 0.218750 0.664688
vt 0.234375 0.680313
vt 0.218750 0.680313
vt 0.140625 0.015626
vt 0.156250 0.680313
vt 0.140625 0.664688
vt 0.156250 0.664687
vt 0.171875 0.000000
vt 0.171875 0.680313
vt 0.234375 0.015626
vt 0.234375 0.680313
vt 0.250000 0.000000
vt 0.250000 0.680313
vt 0.453126 0.624177
vt 0.437501 0.639802
vt 0.437501 0.624177
vt 0.406251 0.624177
vt 0.421876 0.639802
vt 0.406251 0.639802
vt 0.765625 0.000000
vt 0.750000 0.608552
vt 0.750000 0.000000
vt 0.875000 0.000000
vt 0.859375 0.608552
vt 0.859375 0.000000
vt 0.953125 0.000000
vt 0.937500 0.608552
vt 0.937500 0.000000
vt 0.968750 0.000000
vt 0.953125 0.608552
vt 0.953125 0.000000
vt 0.359375 0.624177
vt 0.312500 0.624177
vt 0.781250 0.608552
vt 0.812500 0.608552
vt 0.828125 0.608552
vt 0.296875 0.624177
vt 0.406251 0.608552
vt 0.468751 0.624177
vt 0.296875 0.624177
vt 0.343750 0.639802
vt 0.328125 0.624177
vt 0.531251 0.624177
vt 0.421876 0.624177
vt 0.359375 0.624177
vt 0.218750 0.664688
vt 0.140625 0.000000
vt 0.187500 0.015625
vt 0.171875 0.000000
vt 0.484376 0.624177
vt 0.328125 0.608552
vt 0.750000 0.624177
vt 0.718750 0.624177
vt 0.390626 0.624177
vt 0.265625 0.639802
vt 0.359376 0.624177
vt 0.437501 0.624177
vt 0.531251 0.624177
vt 0.312500 0.624177
vt 0.046875 0.766151
vt 0.015625 0.000000
vt 0.078125 0.015625
vt 0.046875 0.000000
vt 0.281250 0.639802
vt 0.312500 0.624177
vt 0.906250 0.608552
vt 0.921875 0.608552
vt 0.843750 0.608552
vt 0.859375 0.608552
vt 0.437501 0.639802
vt 0.390625 0.624177
vt 0.937500 0.608552
vt 0.890625 0.608552
vt 1.000000 0.608552
vt 0.984375 0.608552
vt 0.500000 0.624177
vt 0.687500 0.608552
vt 0.718750 0.624177
vt 0.687501 0.624177
vt 0.625001 0.624177
vt 0.406250 0.639802
vt 0.656251 0.624177
vt 0.500001 0.624177
vt 0.468751 0.624177
vt 0.609376 0.624177
vt 0.109375 0.766151
vt 0.031250 0.000000
vt 0.062500 0.015625
vt 0.109375 0.000000
vt 0.375000 0.639802
vt 0.578126 0.608552
vt 0.265625 0.624177
vt 0.484376 0.624177
vt 0.640626 0.624177
vt 0.468751 0.639802
vt 0.640626 0.624177
vt 0.546876 0.624177
vt 0.437501 0.624177
vt 0.593751 0.624177
vt 0.234375 0.664688
vt 0.156250 0.000000
vt 0.156250 0.015625
vt 0.234375 0.000000
vt 0.453126 0.639802
vt 0.421876 0.624177
vt 0.765625 0.608552
vt 0.875000 0.608552
vt 0.953125 0.608552
vt 0.968750 0.608552
vn 0.0000 -1.0000 0.0000
vn 0.0000 1.0000 0.0000
vn 0.0000 -0.0000 -1.0000
vn 0.0000 0.0000 1.0000
vn 1.0000 -0.0000 0.0000
vn -1.0000 -0.0000 0.0000
vn 0.7071 0.7071 0.0000
vn -0.7071 0.7071 0.0000
vn -0.7071 -0.7071 0.0000
vn 0.7071 -0.7071 0.0000
vn -0.7071 -0.7072 0.0000
usemtl MaderaPalo
s 1
f 3/1/1 2/2/1 1/3/1
f 7/4/2 5/5/2 6/6/2
f 3/7/3 8/8/3 4/9/3
f 2/10/4 6/11/4 1/12/4
f 4/13/5 7/14/5 2/10/5
f 1/15/6 5/16/6 3/17/6
f 11/18/1 10/19/1 9/20/1
f 15/21/7 13/22/7 14/23/7
f 11/24/3 16/25/3 12/26/3
f 9/27/4 15/28/4 14/29/4
f 12/30/5 15/21/5 10/31/5
f 9/32/6 13/33/6 11/24/6
f 19/34/1 18/35/1 17/36/1
f 23/37/8 21/38/8 22/39/8
f 20/40/3 21/41/3 24/42/3
f 18/43/4 22/44/4 17/45/4
f 20/46/5 23/37/5 18/47/5
f 17/48/6 21/38/6 19/49/6
f 27/50/9 26/51/9 25/52/9
f 31/53/10 29/54/10 30/55/10
f 28/56/3 29/57/3 32/58/3
f 26/59/4 30/60/4 25/61/4
f 28/62/1 31/53/1 26/51/1
f 25/63/2 29/64/2 27/65/2
f 35/66/1 34/67/1 33/68/1
f 39/69/7 37/70/7 38/71/7
f 35/72/3 40/73/3 36/74/3
f 33/75/4 39/76/4 38/77/4
f 36/78/5 39/69/5 34/79/5
f 33/80/6 37/81/6 35/82/6
f 43/83/1 42/84/1 41/85/1
f 47/86/8 45/87/8 46/88/8
f 44/89/3 45/90/3 48/91/3
f 42/92/4 46/93/4 41/94/4
f 44/95/5 47/96/5 42/97/5
f 41/98/6 45/87/6 43/99/6
f 51/100/9 50/101/9 49/102/9
f 55/103/10 53/104/10 54/105/10
f 52/106/3 53/107/3 56/108/3
f 50/109/4 54/110/4 49/111/4
f 52/112/1 55/103/1 50/101/1
f 49/113/2 53/114/2 51/115/2
f 59/116/1 58/117/1 57/118/1
f 63/119/2 61/120/2 62/121/2
f 59/122/3 64/123/3 60/124/3
f 58/125/4 62/126/4 57/127/4
f 60/128/5 63/129/5 58/130/5
f 57/131/6 61/132/6 59/133/6
f 67/134/1 66/135/1 65/136/1
f 71/137/2 69/138/2 70/139/2
f 67/140/3 72/141/3 68/142/3
f 66/143/4 70/144/4 65/145/4
f 68/146/5 71/147/5 66/148/5
f 65/149/6 69/150/6 67/151/6
f 75/152/1 74/153/1 73/154/1
f 79/155/7 77/156/7 78/157/7
f 75/158/3 80/159/3 76/160/3
f 73/161/4 79/162/4 78/163/4
f 76/164/5 79/155/5 74/165/5
f 73/166/6 77/167/6 75/168/6
f 83/169/1 82/170/1 81/171/1
f 87/172/8 85/173/8 86/174/8
f 84/175/3 85/176/3 88/177/3
f 82/178/4 86/179/4 81/180/4
f 84/181/5 87/182/5 82/183/5
f 81/184/6 85/173/6 83/185/6
f 91/186/9 90/187/9 89/188/9
f 95/189/10 93/190/10 94/191/10
f 92/192/3 93/193/3 96/194/3
f 90/195/4 94/196/4 89/197/4
f 92/198/1 95/189/1 90/187/1
f 89/199/2 93/200/2 91/201/2
f 99/202/1 98/203/1 97/204/1
f 103/205/7 101/206/7 102/207/7
f 99/208/3 104/209/3 100/210/3
f 97/211/4 103/212/4 102/213/4
f 100/214/5 103/205/5 98/215/5
f 97/216/6 101/217/6 99/218/6
f 107/219/1 106/220/1 105/221/1
f 111/222/8 109/223/8 110/224/8
f 108/225/3 109/226/3 112/227/3
f 106/228/4 110/229/4 105/230/4
f 108/231/5 111/232/5 106/233/5
f 105/234/6 109/223/6 107/235/6
f 115/236/9 114/237/9 113/238/9
f 119/239/10 117/240/10 118/241/10
f 116/242/3 117/243/3 120/244/3
f 114/245/4 118/246/4 113/247/4
f 116/248/1 119/239/1 114/237/1
f 113/249/2 117/250/2 115/251/2
f 123/252/1 122/253/1 121/254/1
f 127/255/2 125/256/2 126/257/2
f 123/258/3 128/259/3 124/260/3
f 122/261/4 126/262/4 121/263/4
f 124/264/5 127/265/5 122/266/5
f 121/267/6 125/268/6 123/269/6
f 3/1/1 4/270/1 2/2/1
f 7/4/2 8/271/2 5/5/2
f 3/7/3 5/272/3 8/8/3
f 2/10/4 7/14/4 6/11/4
f 4/13/5 8/273/5 7/14/5
f 1/15/6 6/274/6 5/16/6
f 11/18/1 12/275/1 10/19/1
f 15/21/7 16/276/7 13/22/7
f 11/24/3 13/33/3 16/25/3
f 9/27/4 10/277/4 15/28/4
f 12/30/5 16/276/5 15/21/5
f 9/32/6 14/278/6 13/33/6
f 19/34/1 20/279/1 18/35/1
f 23/37/8 24/280/8 21/38/8
f 20/40/3 19/281/3 21/41/3
f 18/43/4 23/282/4 22/44/4
f 20/46/5 24/283/5 23/37/5
f 17/48/6 22/39/6 21/38/6
f 27/50/9 28/62/11 26/51/9
f 31/53/10 32/284/10 29/54/10
f 28/56/3 27/285/3 29/57/3
f 26/59/4 31/286/4 30/60/4
f 28/62/1 32/284/1 31/53/1
f 25/63/2 30/287/2 29/64/2
f 35/66/1 36/288/1 34/67/1
f 39/69/7 40/289/7 37/70/7
f 35/72/3 37/290/3 40/73/3
f 33/75/4 34/291/4 39/76/4
f 36/78/5 40/289/5 39/69/5
f 33/80/6 38/292/6 37/81/6
f 43/83/1 44/293/1 42/84/1
f 47/86/8 48/294/8 45/87/8
f 44/89/3 43/295/3 45/90/3
f 42/92/4 47/296/4 46/93/4
f 44/95/5 48/297/5 47/96/5
f 41/98/6 46/88/6 45/87/6
f 51/100/9 52/112/9 50/101/9
f 55/103/10 56/298/10 53/104/10
f 52/106/3 51/299/3 53/107/3
f 50/109/4 55/300/4 54/110/4
f 52/112/1 56/298/1 55/103/1
f 49/113/2 54/301/2 53/114/2
f 59/116/1 60/302/1 58/117/1
f 63/119/2 64/303/2 61/120/2
f 59/122/3 61/304/3 64/123/3
f 58/125/4 63/305/4 62/126/4
f 60/128/5 64/306/5 63/129/5
f 57/131/6 62/307/6 61/132/6
f 67/134/1 68/308/1 66/135/1
f 71/137/2 72/309/2 69/138/2
f 67/140/3 69/310/3 72/141/3
f 66/143/4 71/311/4 70/144/4
f 68/146/5 72/312/5 71/147/5
f 65/149/6 70/313/6 69/150/6
f 75/152/1 76/314/1 74/153/1
f 79/155/7 80/315/7 77/156/7
f 75/158/3 77/316/3 80/159/3
f 73/161/4 74/317/4 79/162/4
f 76/164/5 80/315/5 79/155/5
f 73/166/6 78/318/6 77/167/6
f 83/169/1 84/319/1 82/170/1
f 87/172/8 88/320/8 85/173/8
f 84/175/3 83/321/3 85/176/3
f 82/178/4 87/322/4 86/179/4
f 84/181/5 88/323/5 87/182/5
f 81/184/6 86/174/6 85/173/6
f 91/186/9 92/198/9 90/187/9
f 95/189/10 96/324/10 93/190/10
f 92/192/3 91/325/3 93/193/3
f 90/195/4 95/326/4 94/196/4
f 92/198/1 96/324/1 95/189/1
f 89/199/2 94/327/2 93/200/2
f 99/202/1 100/328/1 98/203/1
f 103/205/7 104/329/7 101/206/7
f 99/208/3 101/330/3 104/209/3
f 97/211/4 98/331/4 103/212/4
f 100/214/5 104/329/5 103/205/5
f 97/216/6 102/332/6 101/217/6
f 107/219/1 108/333/1 106/220/1
f 111/222/8 112/334/8 109/223/8
f 108/225/3 107/335/3 109/226/3
f 106/228/4 111/336/4 110/229/4
f 108/231/5 112/337/5 111/232/5
f 105/234/6 110/224/6 109/223/6
f 115/236/9 116/248/9 114/237/9
f 119/239/10 120/338/10 117/240/10
f 116/242/3 115/339/3 117/243/3
f 114/245/4 119/340/4 118/246/4
f 116/248/1 120/338/1 119/239/1
f 113/249/2 118/341/2 117/250/2
f 123/252/1 124/342/1 122/253/1
f 127/255/2 128/343/2 125/256/2
f 123/258/3 125/344/3 128/259/3
f 122/261/4 127/345/4 126/262/4
f 124/264/5 128/346/5 127/265/5
f 121/267/6 126/347/6 125/268/6
