# Blender v2.92.0 OBJ File: ''
# www.blender.org
mtllib Piso.mtl
o Plane.125_Plane.129
v 5.703600 -0.136476 0.101444
v 5.943902 -0.136476 0.101444
v 5.703600 -0.136477 -2.286072
v 5.943902 -0.136477 -2.286072
v 5.703600 -0.266865 -2.286072
v 5.703600 -0.266864 0.101444
v 5.943902 -0.266864 0.101444
v 5.943902 -0.266865 -2.286072
v 6.811193 -0.043188 0.101444
v 22.407612 -0.043188 0.101444
v 6.811193 0.375942 0.101443
v 22.407612 0.375942 0.101443
v 6.811193 -0.043189 -2.286072
v 6.811193 0.375942 -2.286072
v 22.407612 -0.043189 -2.286072
v 22.407612 0.375942 -2.286073
v 6.664815 -0.043189 -2.286072
v 6.664815 -0.043188 0.101444
v 6.664815 0.375942 -2.286072
v 6.664815 0.375942 0.101443
v -0.056337 -0.043190 -11.288673
v 22.407612 -0.043190 -11.288673
v -0.056337 0.375940 -11.288673
v 22.407612 0.375940 -11.288673
v -0.056337 -0.043189 -2.286072
v -0.056337 0.375942 -2.286072
v 22.407612 -0.043189 -2.286072
v 22.407612 0.375942 -2.286073
v 22.407612 -0.137657 -2.286072
v 22.407612 -0.137659 -11.288673
v -0.056337 -0.137659 -11.288673
v -0.056337 -0.137657 -2.286072
v 22.407612 -0.207977 -2.286072
v 22.407612 -0.207979 -11.288673
v -0.056337 -0.207979 -11.288673
v -0.056337 -0.207977 -2.286072
v 22.135988 -0.207977 -2.394928
v 22.135988 -0.207979 -11.179818
v 0.215284 -0.207979 -11.179818
v 0.215284 -0.207977 -2.394927
v 22.135988 -4.308508 -2.394927
v 22.135988 -4.308509 -11.179817
v 0.215284 -0.660841 -11.179818
v 0.215284 -0.660840 -2.394927
v 6.811195 -0.043190 -13.676189
v 22.407612 -0.043190 -13.676189
v 6.811195 0.375940 -13.676189
v 22.407612 0.375940 -13.676189
v 6.811195 -0.043190 -11.288673
v 22.407612 -0.043190 -11.288673
v 6.811195 0.375940 -11.288673
v 22.407612 0.375940 -11.288673
v 6.665551 0.375940 -13.676189
v 6.665551 -0.043190 -13.676189
v 6.665551 -0.043190 -11.288673
v 6.665551 0.375940 -11.288673
v 6.424513 0.254689 0.101444
v 6.664815 0.254689 0.101444
v 6.424513 0.254688 -2.286072
v 6.664815 0.254688 -2.286072
v 6.424513 0.124300 -2.286072
v 6.424513 0.124300 0.101444
v 6.664815 0.124300 0.101444
v 6.664815 0.124300 -2.286072
v 6.184210 0.124300 0.101444
v 6.424512 0.124300 0.101444
v 6.184210 0.124300 -2.286072
v 6.424512 0.124300 -2.286072
v 6.184210 -0.006088 -2.286072
v 6.184210 -0.006088 0.101444
v 6.424512 -0.006088 0.101444
v 6.424512 -0.006088 -2.286072
v 5.943907 -0.006088 0.101444
v 6.184209 -0.006088 0.101444
v 5.943907 -0.006088 -2.286072
v 6.184209 -0.006088 -2.286072
v 5.943907 -0.136476 -2.286072
v 5.943907 -0.136476 0.101444
v 6.184209 -0.136476 0.101444
v 6.184209 -0.136476 -2.286072
v 6.665554 0.254689 -13.916492
v 6.665554 0.254689 -13.676189
v 9.053070 0.254689 -13.916492
v 9.053070 0.254689 -13.676190
v 9.053070 0.124301 -13.916492
v 6.665554 0.124301 -13.916492
v 6.665554 0.124301 -13.676189
v 9.053070 0.124301 -13.676190
v 6.665554 0.124301 -14.156796
v 6.665554 0.124301 -13.916492
v 9.053070 0.124301 -14.156796
v 9.053070 0.124301 -13.916493
v 9.053070 -0.006087 -14.156796
v 6.665554 -0.006087 -14.156796
v 6.665554 -0.006087 -13.916492
v 9.053070 -0.006087 -13.916493
v 6.665554 -0.006087 -14.397099
v 6.665554 -0.006087 -14.156796
v 9.053070 -0.006087 -14.397099
v 9.053070 -0.006087 -14.156796
v 9.053070 -0.136475 -14.397099
v 6.665554 -0.136475 -14.397099
v 6.665554 -0.136475 -14.156796
v 9.053070 -0.136475 -14.156796
v 6.665554 -0.136478 -14.637402
v 6.665554 -0.136478 -14.397099
v 9.053070 -0.136478 -14.637402
v 9.053070 -0.136478 -14.397099
v 9.053070 -0.266866 -14.637402
v 6.665554 -0.266866 -14.637402
v 6.665554 -0.266866 -14.397099
v 9.053070 -0.266866 -14.397099
v 6.665554 -0.266864 -14.877707
v 6.665554 -0.266864 -14.637403
v 9.053070 -0.266864 -14.877707
v 9.053070 -0.266864 -14.637404
v 9.053070 -0.397252 -14.877707
v 6.665554 -0.397252 -14.877707
v 6.665554 -0.397252 -14.637403
v 9.053070 -0.397252 -14.637404
v 6.665554 -0.397250 -15.118008
v 6.665554 -0.397250 -14.877705
v 9.053070 -0.397250 -15.118008
v 9.053070 -0.397250 -14.877706
v 9.053070 -0.527638 -15.118008
v 6.665554 -0.527638 -15.118008
v 6.665554 -0.527638 -14.877705
v 9.053070 -0.527638 -14.877706
v 6.665554 -0.527635 -15.358311
v 6.665554 -0.527635 -15.118008
v 9.053070 -0.527635 -15.358311
v 9.053070 -0.527635 -15.118009
v 9.053070 -0.658023 -15.358311
v 6.665554 -0.658023 -15.358311
v 6.665554 -0.658023 -15.118008
v 9.053070 -0.658023 -15.118009
v 6.665554 -0.658023 -15.598614
v 6.665554 -0.658023 -15.358311
v 9.053070 -0.658023 -15.598614
v 9.053070 -0.658023 -15.358312
v 9.053070 -0.788411 -15.598614
v 6.665554 -0.788411 -15.598614
v 6.665554 -0.788411 -15.358311
v 9.053070 -0.788411 -15.358312
v 6.665554 -0.788409 -15.838917
v 6.665554 -0.788409 -15.598614
v 9.053070 -0.788409 -15.838917
v 9.053070 -0.788409 -15.598615
v 9.053070 -0.918797 -15.838917
v 6.665554 -0.918797 -15.838917
v 6.665554 -0.918797 -15.598614
v 9.053070 -0.918797 -15.598615
v 6.665554 -0.918796 -16.079220
v 6.665554 -0.918796 -15.838917
v 9.053070 -0.918796 -16.079220
v 9.053070 -0.918796 -15.838918
v 9.053070 -1.049184 -16.079220
v 6.665554 -1.049184 -16.079220
v 6.665554 -1.049184 -15.838917
v 9.053070 -1.049184 -15.838918
v 6.665554 -1.049180 -16.319523
v 6.665554 -1.049180 -16.079220
v 9.053070 -1.049180 -16.319523
v 9.053070 -1.049180 -16.079220
v 9.053070 -1.179568 -16.319523
v 6.665554 -1.179568 -16.319523
v 6.665554 -1.179568 -16.079220
v 9.053070 -1.179568 -16.079220
vt 0.228803 1.734191
vt -0.019638 -0.734191
vt -0.019638 1.734191
vt -0.019638 -0.734191
vt -0.268080 1.734191
vt -0.019638 1.734191
vt 0.498412 1.734191
vt 0.363608 -0.734191
vt 0.363608 1.734191
vt 0.633216 -0.237308
vt 0.498412 -0.485749
vt 0.498412 -0.237308
vt 0.633216 -0.485749
vt 0.498412 -0.734191
vt 0.498412 -0.485749
vt 0.363607 1.734191
vt 0.228803 -0.734191
vt 0.043960 2.953511
vt -0.694127 3.000000
vt -0.694127 2.953511
vt 0.911618 3.000000
vt 0.782046 -1.953508
vt 0.911618 -1.953508
vt 0.782047 -1.953508
vt 0.043960 3.000000
vt 0.043960 -1.953508
vt -0.694127 -2.000000
vt 1.041190 -1.261913
vt 0.911618 -2.000000
vt 1.041190 -2.000000
vt 1.041190 -0.523828
vt 0.911618 -1.261914
vt 1.041190 -1.261914
vt 0.782047 -2.000000
vt 0.911618 -0.523828
vt 0.958109 -0.394256
vt 0.911618 -0.394256
vt 0.911618 -2.000000
vt 0.595367 4.810901
vt 0.479453 2.321175
vt 0.595367 2.321175
vt -4.500000 -3.936192
vt -2.010273 2.446400
vt -4.500000 2.446400
vt 5.292941 -3.936192
vt 5.319067 2.446407
vt 5.292941 2.446407
vt 4.158915 4.781774
vt 4.043000 2.292045
vt 4.158915 2.292045
vt 5.338514 -3.936192
vt 5.454429 2.446400
vt 5.338514 2.446400
vt 5.177026 -3.936192
vt 0.621493 2.321175
vt 0.640939 4.810901
vt 0.621491 4.810901
vt 4.185040 4.781774
vt 5.454429 -3.936192
vt 5.480555 2.446400
vt 0.479458 2.443121
vt 0.449350 -3.859057
vt 0.479453 -3.936192
vt 5.319067 -3.936192
vt 5.338512 2.446407
vt 5.480555 -3.936192
vt 5.500000 2.446400
vt 4.185040 2.292045
vt 4.204486 4.781774
vt 0.640940 2.321180
vt 0.766182 4.750699
vt 0.640940 4.750699
vt -2.010271 2.443121
vt -1.980168 -3.859057
vt -1.980164 2.365986
vt 0.449350 2.365986
vt -2.010271 -3.936192
vt 2.908971 -3.936192
vt 0.479453 2.321170
vt 0.479453 -3.936192
vt 2.908972 2.292050
vt 4.042999 4.721568
vt 2.908972 4.721568
vt 4.042999 2.292045
vt 4.168242 -3.936192
vt 5.177026 2.292045
vt 2.908971 -3.936192
vt 3.034213 2.292050
vt 2.908971 2.292050
vt 0.782081 -1.953742
vt 0.043961 3.000000
vt 0.043961 -1.953742
vt -0.694159 -2.000000
vt 0.043961 2.953740
vt -0.694159 2.953740
vt 1.041239 -0.523760
vt 0.911660 -1.261880
vt 1.041239 -1.261880
vt 0.911660 2.953740
vt 0.782082 -2.000000
vt 0.911660 -2.000000
vt 0.957920 -0.394181
vt 0.911662 -0.523759
vt 0.957920 -0.523759
vt 1.041239 -1.261880
vt 0.911660 -2.000000
vt 1.041239 -2.000000
vt 0.782081 -2.000000
vt -0.694159 3.000000
vt 0.782082 3.000000
vt 0.782082 2.953740
vt 0.486192 0.805091
vt 0.405160 0.000000
vt 0.405160 0.805091
vt 0.324128 0.000000
vt 0.243096 0.805091
vt 0.324128 0.805091
vt 0.692224 0.805091
vt 0.648256 0.000000
vt 0.648256 0.805091
vt 0.175872 0.886123
vt 0.131904 0.805091
vt 0.131904 0.886123
vt 0.131904 0.886123
vt 0.087936 0.805091
vt 0.087936 0.886123
vt 0.824128 0.805091
vt 0.780160 0.000000
vt 0.780160 0.805091
vt -0.002688 1.507268
vt -0.240886 -0.859343
vt -0.240887 1.507268
vt -0.479085 -0.859343
vt -0.717283 1.507268
vt -0.479085 1.507268
vt 1.616631 1.507268
vt 1.487384 -0.859343
vt 1.487384 1.507268
vt -0.159709 1.745466
vt -0.288956 1.507268
vt -0.288956 1.745466
vt -0.288956 1.745466
vt -0.418202 1.507268
vt -0.418202 1.745466
vt 1.487384 1.507268
vt 1.358138 -0.859343
vt 1.358138 1.507268
vt -6.892257 1.421130
vt -7.077680 -0.421130
vt -7.077680 1.421130
vt -7.077680 -0.421130
vt -7.263103 1.421130
vt -7.077681 1.421130
vt -6.691037 1.421130
vt -6.791647 -0.421130
vt -6.791647 1.421130
vt -6.590427 -0.050285
vt -6.691037 -0.235707
vt -6.691037 -0.050285
vt -6.590427 -0.235707
vt -6.691037 -0.421130
vt -6.691037 -0.235707
vt -6.791647 1.421130
vt -6.892257 -0.421130
vt -0.364641 1.470041
vt -0.462275 0.500000
vt -0.462275 1.470041
vt 0.318799 -0.470041
vt 0.221165 0.500000
vt 0.318799 0.500000
vt 0.717655 1.470041
vt 0.664678 0.500000
vt 0.664678 1.470041
vt 1.088489 1.183440
vt 1.035512 1.085805
vt 1.035512 1.183440
vt 1.088489 0.890537
vt 1.035512 0.792903
vt 1.035512 0.890537
vt 0.876584 1.470041
vt 0.823607 0.500000
vt 0.823607 1.470041
vt 0.806971 0.500000
vt 0.709337 -0.470041
vt 0.709336 0.500000
vt 0.514068 -0.470041
vt 0.416434 0.500000
vt 0.514068 0.500000
vt 0.929560 1.470041
vt 0.876584 0.500000
vt 0.876584 1.470041
vt 1.035512 1.183440
vt 0.982536 1.085806
vt 0.982536 1.183440
vt 1.035512 1.085806
vt 0.982536 0.988171
vt 0.982536 1.085806
vt 0.770631 1.470041
vt 0.717655 0.500000
vt 0.717655 1.470041
vt 1.392776 0.500000
vt 1.295142 -0.470041
vt 1.295142 0.500000
vt -0.364641 -0.470041
vt -0.462275 0.500000
vt -0.364641 0.500000
vt 0.823607 1.470041
vt 0.770631 0.500000
vt 0.770631 1.470041
vt 1.194441 0.597634
vt 1.141465 0.500000
vt 1.141465 0.597634
vt 1.088489 0.988171
vt 1.035512 0.890537
vt 1.035512 0.988171
vt 0.982536 1.470041
vt 0.929560 0.500000
vt 0.929560 1.470041
vt 0.709336 0.500000
vt 0.611702 -0.470041
vt 0.611702 0.500000
vt -0.071738 -0.470041
vt -0.169372 0.500000
vt -0.071738 0.500000
vt 0.042533 1.470041
vt -0.010443 0.500000
vt -0.010443 1.470041
vt 1.141465 1.085805
vt 1.088489 0.988171
vt 1.088489 1.085805
vt 1.035512 0.792903
vt 0.982536 0.695269
vt 0.982536 0.792903
vt 0.201462 1.470041
vt 0.148486 0.500000
vt 0.148486 1.470041
vt 1.099874 0.500000
vt 1.002239 -0.470041
vt 1.002239 0.500000
vt -0.169372 -0.470041
vt -0.267006 0.500000
vt -0.169372 0.500000
vt 0.380094 1.470041
vt 0.327118 0.500000
vt 0.327118 1.470041
vt 1.141465 0.792903
vt 1.088489 0.695268
vt 1.088489 0.792903
vt 1.088489 0.597634
vt 1.035512 0.500000
vt 1.035512 0.597634
vt 0.539023 1.470041
vt 0.486047 0.500000
vt 0.486047 1.470041
vt 0.904605 0.500000
vt 0.806971 -0.470041
vt 0.806971 0.500000
vt 0.221165 -0.470041
vt 0.123531 0.500000
vt 0.221165 0.500000
vt 0.486047 1.470041
vt 0.433070 0.500000
vt 0.433070 1.470041
vt 1.088489 1.085806
vt 1.035512 0.988171
vt 1.035512 1.085806
vt 1.035512 0.890537
vt 0.982536 0.792903
vt 0.982536 0.890537
vt 0.148486 1.470041
vt 0.095509 0.500000
vt 0.095509 1.470041
vt 1.197508 0.500000
vt 1.099874 -0.470041
vt 1.099874 0.500000
vt 0.123531 -0.470041
vt 0.025896 0.500000
vt 0.123531 0.500000
vt 1.445753 0.500000
vt 1.392776 -0.470041
vt 1.392776 0.500000
vt 1.141465 0.695268
vt 1.088489 0.597634
vt 1.088489 0.695268
vt 1.035512 0.695269
vt 0.982536 0.597634
vt 0.982536 0.695269
vt -0.063420 1.470041
vt -0.116396 0.500000
vt -0.116396 1.470041
vt -0.267006 1.470041
vt -0.364641 0.500000
vt -0.364641 1.470041
vt 0.416434 -0.470041
vt 0.318799 0.500000
vt 0.416434 0.500000
vt 0.095509 1.470041
vt 0.042533 0.500000
vt 0.042533 1.470041
vt 1.141465 0.890537
vt 1.088489 0.792902
vt 1.088489 0.890537
vt 1.088489 0.792903
vt 1.035512 0.695269
vt 1.035512 0.792903
vt 0.274141 1.470041
vt 0.221165 0.500000
vt 0.221165 1.470041
vt 1.002239 0.500000
vt 0.904605 -0.470041
vt 0.904605 0.500000
vt 0.611702 -0.470041
vt 0.514068 0.500000
vt 0.611702 0.500000
vt 0.664678 1.470041
vt 0.611702 0.500000
vt 0.611702 1.470041
vt 1.141465 0.597634
vt 1.088489 0.500000
vt 1.088489 0.597634
vt 1.035512 0.597634
vt 0.982536 0.500000
vt 0.982536 0.597634
vt 0.591999 1.470041
vt 0.539023 0.500000
vt 0.539023 1.470041
vt 1.295142 0.500000
vt 1.197508 -0.470041
vt 1.197508 0.500000
vt 0.025896 -0.470041
vt -0.071738 0.500000
vt 0.025896 0.500000
vt -0.010443 1.470041
vt -0.063420 0.500000
vt -0.063420 1.470041
vt 1.141465 0.988171
vt 1.088489 0.890537
vt 1.088489 0.988171
vt 1.035512 0.988171
vt 0.982536 0.890537
vt 0.982536 0.988171
vt 0.433070 1.470041
vt 0.380094 0.500000
vt 0.380094 1.470041
vt -0.169372 1.470041
vt -0.267006 0.500000
vt -0.267006 1.470041
vt -0.267006 -0.470041
vt -0.364641 0.500000
vt -0.267006 0.500000
vt 0.327118 1.470041
vt 0.274141 0.500000
vt 0.274141 1.470041
vt 1.141465 1.183439
vt 1.088489 1.085805
vt 1.088489 1.183439
vt 1.088489 0.695269
vt 1.035512 0.597634
vt 1.035512 0.695269
vt -0.116396 1.470041
vt -0.169372 0.500000
vt -0.268080 -0.734191
vt 0.498412 -0.734191
vt 0.633216 -0.485749
vt 0.633216 -0.734191
vt 0.363608 -0.734191
vt 0.043960 3.000000
vt 0.782046 3.000000
vt 0.782047 3.000000
vt 0.043960 -2.000000
vt 0.911618 -1.261913
vt 0.911618 -0.523828
vt 0.043960 -2.000000
vt 0.958109 -0.523828
vt 0.782046 -2.000000
vt 0.479453 4.810901
vt -2.010273 -3.936192
vt 4.043000 4.781774
vt 5.177026 2.446407
vt 0.640939 2.321175
vt 5.338512 -3.936192
vt 5.500000 -3.936192
vt 4.204486 2.292045
vt 0.766182 2.321180
vt 2.908971 2.321170
vt 4.042999 2.292050
vt 4.042999 -3.936192
vt 4.042999 -3.936192
vt 0.782081 3.000000
vt 0.043961 -2.000000
vt 0.911660 -0.523760
vt 0.911662 -0.394181
vt 0.911660 -1.261880
vt 0.043961 -2.000000
vt 0.043961 3.000000
vt 0.911660 3.000000
vt 0.486192 0.000000
vt 0.243096 0.000000
vt 0.692224 0.000000
vt 0.175872 0.805091
vt 0.131904 0.805091
vt 0.824128 0.000000
vt -0.002688 -0.859343
vt -0.717283 -0.859343
vt 1.616631 -0.859343
vt -0.159709 1.507268
vt -0.288956 1.507268
vt 1.487384 -0.859343
vt -7.263103 -0.421130
vt -6.691037 -0.421130
vt -6.590427 -0.235707
vt -6.590427 -0.421130
vt -6.791647 -0.421130
vt -0.364641 0.500000
vt 0.221165 -0.470041
vt 0.717655 0.500000
vt 1.088489 1.085805
vt 1.088489 0.792903
vt 0.876584 0.500000
vt 0.806971 -0.470041
vt 0.416434 -0.470041
vt 0.929560 0.500000
vt 1.035512 1.085806
vt 1.035512 0.988171
vt 0.770631 0.500000
vt 1.392776 -0.470041
vt -0.462275 -0.470041
vt 0.823607 0.500000
vt 1.194441 0.500000
vt 1.088489 0.890537
vt 0.982536 0.500000
vt 0.709336 -0.470041
vt -0.169372 -0.470041
vt 0.042533 0.500000
vt 1.141465 0.988171
vt 1.035512 0.695269
vt 0.201462 0.500000
vt 1.099873 -0.470041
vt -0.267006 -0.470041
vt 0.380094 0.500000
vt 1.141465 0.695268
vt 1.088489 0.500000
vt 0.539023 0.500000
vt 0.904605 -0.470041
vt 0.123531 -0.470041
vt 0.486047 0.500000
vt 1.088489 0.988171
vt 1.035512 0.792903
vt 0.148486 0.500000
vt 1.197508 -0.470041
vt 0.025897 -0.470041
vt 1.445753 -0.470041
vt 1.141465 0.597634
vt 1.035512 0.597634
vt -0.063420 0.500000
vt -0.267007 0.500000
vt 0.318799 -0.470041
vt 0.095509 0.500000
vt 1.141465 0.792902
vt 1.088489 0.695269
vt 0.274141 0.500000
vt 1.002239 -0.470041
vt 0.514068 -0.470041
vt 0.664678 0.500000
vt 1.141465 0.500000
vt 1.035512 0.500000
vt 0.591999 0.500000
vt 1.295142 -0.470041
vt -0.071738 -0.470041
vt -0.010443 0.500000
vt 1.141465 0.890537
vt 1.035512 0.890537
vt 0.433070 0.500000
vt -0.364641 -0.470041
vt 0.327118 0.500000
vt 1.141465 1.085805
vt 1.088489 0.597634
vt -0.116396 0.500000
vn 0.0000 1.0000 -0.0000
vn 0.0000 -1.0000 0.0000
vn -1.0000 0.0000 0.0000
vn 0.0000 0.0000 -1.0000
vn 0.0000 0.0000 1.0000
vn 1.0000 0.0000 0.0000
vn -0.1641 -0.9864 0.0000
usemtl MaderaPuente
s 1
f 2/1/1 3/2/1 1/3/1
f 5/4/2 7/5/2 6/6/2
f 5/7/3 1/8/3 3/9/3
f 8/10/4 3/11/4 4/12/4
f 6/13/5 2/14/5 1/15/5
f 7/16/6 4/17/6 2/1/6
f 14/18/1 20/19/1 11/20/1
f 10/21/5 11/22/5 9/23/5
f 13/24/2 10/25/2 9/26/2
f 12/27/1 14/18/1 11/20/1
f 15/28/6 12/29/6 10/30/6
f 18/31/3 19/32/3 17/33/3
f 9/26/2 17/34/2 13/24/2
f 13/35/4 19/36/4 14/37/4
f 11/22/5 18/38/5 9/23/5
f 22/39/6 28/40/6 27/41/6
f 28/42/1 23/43/1 26/44/1
f 25/45/5 29/46/5 27/47/5
f 25/48/3 23/49/3 21/50/3
f 24/51/4 21/52/4 23/53/4
f 27/47/5 26/54/5 25/45/5
f 29/55/6 34/56/6 30/57/6
f 21/50/3 32/58/3 25/48/3
f 27/41/6 30/57/6 22/39/6
f 22/59/4 31/60/4 21/52/4
f 36/61/2 37/62/2 33/63/2
f 32/64/5 33/65/5 29/46/5
f 30/66/4 35/67/4 31/60/4
f 31/68/3 36/69/3 32/58/3
f 39/70/3 44/71/3 40/72/3
f 35/73/2 38/74/2 39/75/2
f 35/73/2 40/76/2 36/61/2
f 33/63/2 38/74/2 34/77/2
f 43/78/7 41/79/7 44/80/7
f 37/81/6 42/82/6 38/83/6
f 37/84/5 44/85/5 41/86/5
f 38/87/4 43/88/4 39/89/4
f 45/90/2 50/91/2 49/92/2
f 52/93/1 47/94/1 51/95/1
f 46/96/6 52/97/6 50/98/6
f 45/99/4 48/100/4 46/101/4
f 51/102/5 55/103/5 49/104/5
f 55/105/3 53/106/3 54/107/3
f 49/92/2 54/108/2 45/90/2
f 47/94/1 56/109/1 51/95/1
f 45/99/4 53/110/4 47/111/4
f 58/112/1 59/113/1 57/114/1
f 61/115/2 63/116/2 62/117/2
f 61/118/3 57/119/3 59/120/3
f 64/121/4 59/122/4 60/123/4
f 62/124/5 58/125/5 57/126/5
f 63/127/6 60/128/6 58/129/6
f 66/130/1 67/131/1 65/132/1
f 69/133/2 71/134/2 70/135/2
f 69/136/3 65/137/3 67/138/3
f 72/139/4 67/140/4 68/141/4
f 70/142/5 66/143/5 65/144/5
f 71/145/6 68/146/6 66/147/6
f 74/148/1 75/149/1 73/150/1
f 77/151/2 79/152/2 78/153/2
f 77/154/3 73/155/3 75/156/3
f 80/157/4 75/158/4 76/159/4
f 78/160/5 74/161/5 73/162/5
f 79/163/6 76/164/6 74/148/6
f 82/165/1 83/166/1 81/167/1
f 85/168/2 87/169/2 86/170/2
f 85/171/4 81/172/4 83/173/4
f 88/174/6 83/175/6 84/176/6
f 86/177/3 82/178/3 81/179/3
f 87/180/5 84/181/5 82/182/5
f 90/183/1 91/184/1 89/185/1
f 93/186/2 95/187/2 94/188/2
f 93/189/4 89/190/4 91/191/4
f 96/192/6 91/193/6 92/194/6
f 94/195/3 90/196/3 89/197/3
f 95/198/5 92/199/5 90/200/5
f 98/201/1 99/202/1 97/203/1
f 101/204/2 103/205/2 102/206/2
f 101/207/4 97/208/4 99/209/4
f 104/210/6 99/211/6 100/212/6
f 102/213/3 98/214/3 97/215/3
f 103/216/5 100/217/5 98/218/5
f 106/219/1 107/220/1 105/221/1
f 109/222/2 111/223/2 110/224/2
f 109/225/4 105/226/4 107/227/4
f 112/228/6 107/229/6 108/230/6
f 110/231/3 106/232/3 105/233/3
f 111/234/5 108/235/5 106/236/5
f 114/237/1 115/238/1 113/239/1
f 117/240/2 119/241/2 118/242/2
f 117/243/4 113/244/4 115/245/4
f 120/246/6 115/247/6 116/248/6
f 118/249/3 114/250/3 113/251/3
f 119/252/5 116/253/5 114/254/5
f 122/255/1 123/256/1 121/257/1
f 125/258/2 127/259/2 126/260/2
f 125/261/4 121/262/4 123/263/4
f 128/264/6 123/265/6 124/266/6
f 126/267/3 122/268/3 121/269/3
f 127/270/5 124/271/5 122/272/5
f 130/273/1 131/274/1 129/275/1
f 133/276/2 135/277/2 134/278/2
f 133/279/4 129/280/4 131/281/4
f 136/282/6 131/283/6 132/284/6
f 134/285/3 130/286/3 129/287/3
f 135/288/5 132/289/5 130/290/5
f 138/291/1 139/292/1 137/293/1
f 141/294/2 143/295/2 142/296/2
f 141/297/4 137/298/4 139/299/4
f 144/300/6 139/301/6 140/302/6
f 142/303/3 138/304/3 137/305/3
f 143/306/5 140/307/5 138/308/5
f 146/309/1 147/310/1 145/311/1
f 149/312/2 151/313/2 150/314/2
f 149/315/4 145/316/4 147/317/4
f 152/318/6 147/319/6 148/320/6
f 150/321/3 146/322/3 145/323/3
f 151/324/5 148/325/5 146/326/5
f 154/327/1 155/328/1 153/329/1
f 157/330/2 159/331/2 158/332/2
f 157/333/4 153/334/4 155/335/4
f 160/336/6 155/337/6 156/338/6
f 158/339/3 154/340/3 153/341/3
f 159/342/5 156/343/5 154/344/5
f 162/345/1 163/346/1 161/347/1
f 165/348/2 167/349/2 166/350/2
f 165/351/4 161/352/4 163/353/4
f 168/354/6 163/355/6 164/356/6
f 166/357/3 162/358/3 161/359/3
f 167/360/5 164/361/5 162/345/5
f 2/1/1 4/17/1 3/2/1
f 5/4/2 8/362/2 7/5/2
f 5/7/3 6/363/3 1/8/3
f 8/10/4 5/364/4 3/11/4
f 6/13/5 7/365/5 2/14/5
f 7/16/6 8/366/6 4/17/6
f 14/18/1 19/367/1 20/19/1
f 10/21/5 12/368/5 11/22/5
f 13/24/2 15/369/2 10/25/2
f 12/27/1 16/370/1 14/18/1
f 15/28/6 16/371/6 12/29/6
f 18/31/3 20/372/3 19/32/3
f 9/26/2 18/373/2 17/34/2
f 13/35/4 17/374/4 19/36/4
f 11/22/5 20/375/5 18/38/5
f 22/39/6 24/376/6 28/40/6
f 28/42/1 24/377/1 23/43/1
f 25/45/5 32/64/5 29/46/5
f 25/48/3 26/378/3 23/49/3
f 24/51/4 22/59/4 21/52/4
f 27/47/5 28/379/5 26/54/5
f 29/55/6 33/380/6 34/56/6
f 21/50/3 31/68/3 32/58/3
f 27/41/6 29/55/6 30/57/6
f 22/59/4 30/66/4 31/60/4
f 36/61/2 40/76/2 37/62/2
f 32/64/5 36/381/5 33/65/5
f 30/66/4 34/382/4 35/67/4
f 31/68/3 35/383/3 36/69/3
f 39/70/3 43/384/3 44/71/3
f 35/73/2 34/77/2 38/74/2
f 35/73/2 39/75/2 40/76/2
f 33/63/2 37/62/2 38/74/2
f 43/78/7 42/385/7 41/79/7
f 37/81/6 41/386/6 42/82/6
f 37/84/5 40/387/5 44/85/5
f 38/87/4 42/388/4 43/88/4
f 45/90/2 46/389/2 50/91/2
f 52/93/1 48/390/1 47/94/1
f 46/96/6 48/391/6 52/97/6
f 45/99/4 47/111/4 48/100/4
f 51/102/5 56/392/5 55/103/5
f 55/105/3 56/393/3 53/106/3
f 49/92/2 55/394/2 54/108/2
f 47/94/1 53/395/1 56/109/1
f 45/99/4 54/396/4 53/110/4
f 58/112/1 60/397/1 59/113/1
f 61/115/2 64/398/2 63/116/2
f 61/118/3 62/399/3 57/119/3
f 64/121/4 61/400/4 59/122/4
f 62/124/5 63/401/5 58/125/5
f 63/127/6 64/402/6 60/128/6
f 66/130/1 68/403/1 67/131/1
f 69/133/2 72/404/2 71/134/2
f 69/136/3 70/405/3 65/137/3
f 72/139/4 69/406/4 67/140/4
f 70/142/5 71/407/5 66/143/5
f 71/145/6 72/408/6 68/146/6
f 74/148/1 76/164/1 75/149/1
f 77/151/2 80/409/2 79/152/2
f 77/154/3 78/410/3 73/155/3
f 80/157/4 77/411/4 75/158/4
f 78/160/5 79/412/5 74/161/5
f 79/163/6 80/413/6 76/164/6
f 82/165/1 84/414/1 83/166/1
f 85/168/2 88/415/2 87/169/2
f 85/171/4 86/416/4 81/172/4
f 88/174/6 85/417/6 83/175/6
f 86/177/3 87/418/3 82/178/3
f 87/180/5 88/419/5 84/181/5
f 90/183/1 92/420/1 91/184/1
f 93/186/2 96/421/2 95/187/2
f 93/189/4 94/422/4 89/190/4
f 96/192/6 93/423/6 91/193/6
f 94/195/3 95/424/3 90/196/3
f 95/198/5 96/425/5 92/199/5
f 98/201/1 100/426/1 99/202/1
f 101/204/2 104/427/2 103/205/2
f 101/207/4 102/428/4 97/208/4
f 104/210/6 101/429/6 99/211/6
f 102/213/3 103/430/3 98/214/3
f 103/216/5 104/431/5 100/217/5
f 106/219/1 108/432/1 107/220/1
f 109/222/2 112/433/2 111/223/2
f 109/225/4 110/434/4 105/226/4
f 112/228/6 109/435/6 107/229/6
f 110/231/3 111/436/3 106/232/3
f 111/234/5 112/437/5 108/235/5
f 114/237/1 116/438/1 115/238/1
f 117/240/2 120/439/2 119/241/2
f 117/243/4 118/440/4 113/244/4
f 120/246/6 117/441/6 115/247/6
f 118/249/3 119/442/3 114/250/3
f 119/252/5 120/443/5 116/253/5
f 122/255/1 124/444/1 123/256/1
f 125/258/2 128/445/2 127/259/2
f 125/261/4 126/446/4 121/262/4
f 128/264/6 125/447/6 123/265/6
f 126/267/3 127/448/3 122/268/3
f 127/270/5 128/449/5 124/271/5
f 130/273/1 132/450/1 131/274/1
f 133/276/2 136/451/2 135/277/2
f 133/279/4 134/452/4 129/280/4
f 136/282/6 133/453/6 131/283/6
f 134/285/3 135/454/3 130/286/3
f 135/288/5 136/455/5 132/289/5
f 138/291/1 140/456/1 139/292/1
f 141/294/2 144/457/2 143/295/2
f 141/297/4 142/458/4 137/298/4
f 144/300/6 141/459/6 139/301/6
f 142/303/3 143/460/3 138/304/3
f 143/306/5 144/461/5 140/307/5
f 146/309/1 148/462/1 147/310/1
f 149/312/2 152/463/2 151/313/2
f 149/315/4 150/464/4 145/316/4
f 152/318/6 149/465/6 147/319/6
f 150/321/3 151/466/3 146/322/3
f 151/324/5 152/467/5 148/325/5
f 154/327/1 156/468/1 155/328/1
f 157/330/2 160/469/2 159/331/2
f 157/333/4 158/470/4 153/334/4
f 160/336/6 157/471/6 155/337/6
f 158/339/3 159/472/3 154/340/3
f 159/342/5 160/473/5 156/343/5
f 162/345/1 164/361/1 163/346/1
f 165/348/2 168/474/2 167/349/2
f 165/351/4 166/475/4 161/352/4
f 168/354/6 165/476/6 163/355/6
f 166/357/3 167/477/3 162/358/3
f 167/360/5 168/478/5 164/361/5
