# Blender v2.92.0 OBJ File: ''
# www.blender.org
mtllib Paredes.mtl
o Plane.189
v 6.287537 0.211598 -0.026718
v 6.287537 0.211599 -6.136947
v 6.287537 3.211570 -0.026718
v 6.287538 3.211570 -6.136947
v 6.187142 3.211570 -0.127113
v 6.187141 0.211598 -0.127113
v 6.187142 0.211599 -6.036552
v 6.187142 3.211570 -6.036552
v 6.287537 0.211598 -1.776535
v 6.287537 3.211570 -1.776534
v 6.187141 0.211598 -1.776535
v 6.187142 3.211570 -1.776534
v 6.287537 0.211598 -3.223911
v 6.187142 0.211598 -3.223911
v 6.287538 3.211570 -3.223911
v 6.187142 3.211570 -3.223911
v 6.287537 2.210816 -0.026718
v 6.287538 2.210817 -6.136947
v 6.187142 2.210816 -0.127113
v 6.187142 2.210817 -6.036552
v 6.187142 2.210816 -1.776534
v 6.287537 2.210816 -1.776534
v 6.187142 2.210816 -3.223911
v 6.287537 2.210816 -3.223911
v 6.287537 1.411939 -3.223911
v 6.287537 1.411939 -6.136947
v 6.187142 1.411939 -6.036552
v 6.187142 1.411939 -3.223911
v 6.287537 0.211598 -4.225059
v 6.187142 0.211598 -4.225059
v 6.287538 3.211570 -4.225059
v 6.187142 3.211570 -4.225059
v 6.187142 2.210817 -4.225059
v 6.287537 2.210817 -4.225059
v 6.287537 1.411939 -4.225059
v 6.187142 1.411939 -4.225059
v 6.287537 0.211598 -5.103637
v 6.187142 0.211598 -5.103637
v 6.287538 2.210817 -5.103637
v 6.287537 1.411939 -5.103637
v 6.287538 3.211570 -5.103637
v 6.187142 3.211570 -5.103637
v 6.187142 2.210817 -5.103637
v 6.187142 1.411939 -5.103637
v 0.124523 0.211597 -0.127113
v 0.124524 0.211598 -6.036552
v 0.124524 3.211569 -0.127113
v 0.124524 3.211569 -6.036552
v 0.024128 3.211569 -0.026718
v 0.024128 0.211597 -0.026718
v 0.024128 0.211598 -6.136948
v 0.024129 3.211569 -6.136948
v 0.024128 0.211596 -0.026718
v 6.287537 0.211596 -0.026718
v 0.024128 3.211567 -0.026718
v 6.287537 3.211568 -0.026718
v 0.124524 3.211567 -0.127113
v 0.124523 0.211596 -0.127113
v 6.187141 0.211596 -0.127113
v 6.187142 3.211568 -0.127113
v 3.030140 0.211595 -0.026718
v 3.030141 5.665540 -0.026718
v 3.030140 0.211595 -0.127113
v 3.030141 5.665540 -0.127113
v 3.030140 3.211568 -0.026718
v 3.030140 3.211563 -0.127113
v 0.024128 1.411936 -0.026718
v 6.287537 1.411937 -0.026718
v 0.124523 1.411936 -0.127113
v 6.187142 1.411937 -0.127113
v 3.030140 1.411935 -0.026718
v 3.030140 1.411933 -0.127113
v 6.287537 2.261762 -0.026718
v 6.187142 2.261762 -0.127113
v 3.030140 2.261758 -0.127113
v 0.024128 2.261761 -0.026718
v 0.124524 2.261761 -0.127113
v 3.030140 2.261762 -0.026718
v 2.530216 0.211595 -0.026718
v 2.552437 0.211595 -0.127113
v 2.530217 3.211568 -0.026718
v 2.552437 3.211563 -0.127113
v 2.530216 1.411935 -0.026718
v 2.552437 1.411934 -0.127113
v 2.530217 2.261762 -0.026718
v 2.552437 2.261758 -0.127113
v 3.529655 0.211595 -0.026718
v 3.514168 0.211595 -0.127113
v 3.529656 3.211568 -0.026718
v 3.514168 3.211563 -0.127113
v 3.514168 1.411933 -0.127113
v 3.529656 1.411935 -0.026718
v 3.514168 2.261758 -0.127113
v 3.529656 2.261762 -0.026718
v 0.124524 0.211598 -6.036552
v 6.187142 0.211599 -6.036552
v 0.124524 3.211569 -6.036552
v 6.187142 3.211570 -6.036552
v 0.024129 3.211569 -6.136948
v 0.024128 0.211598 -6.136948
v 6.287537 0.211599 -6.136947
v 6.287538 3.211570 -6.136947
v 3.155835 0.211597 -6.036552
v 3.155836 5.665542 -6.036552
v 3.155835 0.211597 -6.136948
v 3.155836 5.665542 -6.136948
vt 1.000000 0.663950
vt 0.921897 1.000000
vt 0.921897 0.663950
vt 0.921897 1.000000
vt 1.000000 0.663950
vt 0.921897 0.663950
vt 0.500000 1.000000
vt 0.000000 1.000000
vt 0.000000 1.000000
vt 0.921897 0.000000
vt 1.000000 0.000000
vt 1.000000 0.000000
vt 1.000000 1.000000
vt 0.000000 0.663950
vt 0.000000 0.000000
vt 0.000000 0.663950
vt 0.000000 0.000000
vt 0.500000 0.000000
vt 0.750000 1.000000
vt 0.750000 1.000000
vt 0.500000 0.663950
vt 0.500000 0.663950
vt 0.843795 1.000000
vt 0.843795 1.000000
vt 0.500000 1.000000
vt 0.750000 0.663950
vt 0.750000 0.663950
vt 0.750000 0.331975
vt 0.750000 0.000000
vt 0.750000 0.331975
vt 0.500000 0.000000
vt 1.000000 0.331975
vt 1.000000 0.331975
vt 0.921897 0.331975
vt 0.921897 0.331975
vt 0.921897 0.000000
vt 0.843795 0.000000
vt 0.750000 0.000000
vt 0.843795 0.000000
vt 0.843795 0.331975
vt 0.843795 0.331975
vt 0.843795 0.663950
vt 0.843795 0.663950
vt 1.000000 1.000000
vt 1.000000 0.000000
vt 0.000000 1.000000
vt 0.000000 0.000000
vt 0.000000 1.000000
vt 1.000000 0.000000
vt 0.000000 0.000000
vt 1.000000 1.000000
vt 1.000000 1.000000
vt 1.000000 0.736111
vt 0.577133 0.619467
vt 0.577133 0.455996
vt 0.577133 0.619466
vt 1.000000 0.736111
vt 0.577133 0.455996
vt 0.500000 1.000000
vt 0.000000 1.000000
vt 0.000000 1.000000
vt 0.577133 0.000000
vt 1.000000 0.000000
vt 1.000000 0.000000
vt 1.000000 1.000000
vt 0.000000 0.500000
vt 0.000000 0.000000
vt 0.000000 0.500000
vt 0.389325 0.000000
vt 0.500000 0.000000
vt 0.389325 0.000000
vt 1.000000 1.000000
vt 0.389325 0.649650
vt 0.500000 0.404901
vt 0.389325 0.478215
vt 0.500000 0.404902
vt 0.389325 0.649651
vt 0.389325 0.478215
vt 0.500000 0.550056
vt 0.500000 1.000000
vt 0.500000 0.550055
vt 0.389325 0.324826
vt 0.389325 0.324825
vt 0.500000 0.000000
vt 0.000000 0.736111
vt 0.000000 0.736111
vt 1.000000 0.500000
vt 0.577133 0.309733
vt 0.577133 0.000000
vt 0.577133 0.309733
vt 0.500000 0.275028
vt 1.000000 0.500000
vt 0.000000 0.000000
vt 0.500000 0.275027
vt 0.500000 0.000000
vt 1.000000 1.000000
vt 0.500000 1.000000
vt 0.500000 0.000000
vt 1.000000 1.000000
vt 1.000000 0.000000
vt 0.500000 1.000000
vt 0.000000 1.000000
vt 1.000000 0.000000
vt 0.000000 1.000000
vt 0.000000 0.000000
vt 0.000000 0.000000
vn 1.0000 0.0000 0.0000
vn -1.0000 0.0000 0.0000
vn 0.0000 1.0000 -0.0000
vn -0.0000 -1.0000 -0.0000
vn -0.7071 0.0000 -0.7071
vn -0.7071 0.0000 0.7071
vn 0.0000 0.0000 1.0000
vn 0.0000 0.0000 -1.0000
vn 0.7071 -0.0000 -0.7071
vn 0.7071 -0.0000 0.7071
vn -0.6450 0.7641 -0.0106
vn -0.5369 0.6573 -0.5289
vn -0.5345 0.6547 -0.5345
vn 0.5176 0.6867 -0.5104
vn 0.6135 0.7896 -0.0096
vn 0.5156 0.6844 -0.5156
vn -0.9883 -0.0000 0.1525
vn 0.9764 -0.0000 0.2161
vn -0.6290 0.7774 0.0101
vn -0.5271 0.6724 0.5196
vn -0.6292 0.7772 0.0000
vn 0.5271 0.6724 0.5196
vn 0.6290 0.7774 0.0101
vn 0.6292 0.7772 0.0000
vn -0.6452 0.7640 0.0000
vn 0.6137 0.7895 0.0000
vn -0.5250 0.6699 0.5250
vn 0.5250 0.6699 0.5250
usemtl Wood_Wall
s 1
f 18/1/1 41/2/1 39/3/1
f 42/4/2 20/5/2 43/6/2
f 10/7/3 5/8/3 3/9/3
f 37/10/4 7/11/4 2/12/4
f 20/5/5 4/13/5 18/1/5
f 19/14/6 1/15/6 17/16/6
f 6/17/4 9/18/4 1/15/4
f 16/19/3 10/7/3 15/20/3
f 5/8/2 21/21/2 19/14/2
f 22/22/1 3/9/1 17/16/1
f 32/23/3 15/20/3 31/24/3
f 12/25/2 23/26/2 21/21/2
f 24/27/1 10/7/1 22/22/1
f 21/21/4 24/27/4 22/22/4
f 28/28/7 13/29/7 25/30/7
f 9/18/1 17/16/1 1/15/1
f 19/14/2 11/31/2 6/17/2
f 5/8/6 17/16/6 3/9/6
f 27/32/5 18/1/5 26/33/5
f 43/6/2 27/32/2 44/34/2
f 26/33/1 39/3/1 40/35/1
f 11/31/8 22/22/8 9/18/8
f 2/12/1 40/35/1 37/10/1
f 44/34/2 7/11/2 38/36/2
f 7/11/5 26/33/5 2/12/5
f 23/26/7 25/30/7 24/27/7
f 28/28/2 30/37/2 14/38/2
f 29/39/1 25/30/1 13/29/1
f 35/40/1 24/27/1 25/30/1
f 23/26/2 36/41/2 28/28/2
f 42/4/3 31/24/3 41/2/3
f 14/38/4 29/39/4 13/29/4
f 16/19/2 33/42/2 23/26/2
f 34/43/1 15/20/1 24/27/1
f 8/44/3 41/2/3 4/13/3
f 36/41/2 38/36/2 30/37/2
f 37/10/1 35/40/1 29/39/1
f 30/37/4 37/10/4 29/39/4
f 32/23/2 43/6/2 33/42/2
f 39/3/1 31/24/1 34/43/1
f 35/40/8 33/42/8 34/43/8
f 36/41/3 40/35/3 44/34/3
f 43/6/7 40/35/7 39/3/7
f 39/3/4 33/42/4 43/6/4
f 46/45/1 47/46/1 45/47/1
f 49/48/2 51/49/2 50/50/2
f 52/51/3 47/46/3 48/52/3
f 50/50/4 46/45/4 45/47/4
f 51/49/9 48/52/9 46/45/9
f 49/48/10 45/47/10 47/46/10
f 73/53/7 89/54/7 94/55/7
f 90/56/8 74/57/8 93/58/8
f 62/59/11 57/60/12 55/61/13
f 87/62/4 59/63/4 54/64/4
f 74/57/9 56/65/9 73/53/9
f 69/66/5 53/67/5 67/68/5
f 80/69/4 61/70/4 79/71/4
f 60/72/14 62/59/15 56/65/16
f 82/73/8 75/74/8 86/75/8
f 78/76/7 81/77/7 85/78/7
f 62/59/7 81/77/7 65/79/7
f 62/59/7 89/54/7 56/65/7
f 64/80/8 90/56/8 66/81/8
f 64/80/8 82/73/8 57/60/8
f 61/70/7 83/82/7 79/71/7
f 84/83/8 63/84/8 80/69/8
f 77/85/5 67/68/5 76/86/5
f 59/63/9 68/87/9 54/64/9
f 91/88/8 59/63/8 88/89/8
f 54/64/7 92/90/7 87/62/7
f 57/60/5 76/86/5 55/61/5
f 93/58/17 92/90/17 94/55/17
f 71/91/3 84/83/3 83/82/3
f 70/92/9 73/53/9 68/87/9
f 93/58/8 70/92/8 91/88/8
f 68/87/7 94/55/7 92/90/7
f 69/66/8 86/75/8 84/83/8
f 83/82/7 76/86/7 67/68/7
f 58/93/8 84/83/8 80/69/8
f 79/71/7 67/68/7 53/67/7
f 85/78/7 55/61/7 76/86/7
f 77/85/8 82/73/8 86/75/8
f 58/93/4 79/71/4 53/67/4
f 91/88/3 71/91/3 92/90/3
f 83/82/18 86/75/18 85/78/18
f 87/62/7 71/91/7 61/70/7
f 72/94/8 88/89/8 63/84/8
f 61/70/4 88/89/4 87/62/4
f 66/81/8 93/58/8 75/74/8
f 94/55/7 65/79/7 78/76/7
f 93/58/4 78/76/4 75/74/4
f 86/75/4 78/76/4 85/78/4
f 103/95/7 98/96/7 104/97/7
f 105/98/8 102/99/8 101/100/8
f 106/101/19 97/102/20 104/97/21
f 105/98/4 96/103/4 103/95/4
f 101/100/10 98/96/10 96/103/10
f 99/104/6 95/105/6 97/102/6
f 95/105/4 105/98/4 103/95/4
f 98/96/22 106/101/23 104/97/24
f 99/104/8 105/98/8 100/106/8
f 103/95/7 97/102/7 95/105/7
f 18/1/1 4/13/1 41/2/1
f 42/4/2 8/44/2 20/5/2
f 10/7/3 12/25/3 5/8/3
f 37/10/4 38/36/4 7/11/4
f 20/5/5 8/44/5 4/13/5
f 19/14/6 6/17/6 1/15/6
f 6/17/4 11/31/4 9/18/4
f 16/19/3 12/25/3 10/7/3
f 5/8/2 12/25/2 21/21/2
f 22/22/1 10/7/1 3/9/1
f 32/23/3 16/19/3 15/20/3
f 12/25/2 16/19/2 23/26/2
f 24/27/1 15/20/1 10/7/1
f 21/21/4 23/26/4 24/27/4
f 28/28/7 14/38/7 13/29/7
f 9/18/1 22/22/1 17/16/1
f 19/14/2 21/21/2 11/31/2
f 5/8/6 19/14/6 17/16/6
f 27/32/5 20/5/5 18/1/5
f 43/6/2 20/5/2 27/32/2
f 26/33/1 18/1/1 39/3/1
f 11/31/8 21/21/8 22/22/8
f 2/12/1 26/33/1 40/35/1
f 44/34/2 27/32/2 7/11/2
f 7/11/5 27/32/5 26/33/5
f 23/26/7 28/28/7 25/30/7
f 28/28/2 36/41/2 30/37/2
f 29/39/1 35/40/1 25/30/1
f 35/40/1 34/43/1 24/27/1
f 23/26/2 33/42/2 36/41/2
f 42/4/3 32/23/3 31/24/3
f 14/38/4 30/37/4 29/39/4
f 16/19/2 32/23/2 33/42/2
f 34/43/1 31/24/1 15/20/1
f 8/44/3 42/4/3 41/2/3
f 36/41/2 44/34/2 38/36/2
f 37/10/1 40/35/1 35/40/1
f 30/37/4 38/36/4 37/10/4
f 32/23/2 42/4/2 43/6/2
f 39/3/1 41/2/1 31/24/1
f 35/40/8 36/41/8 33/42/8
f 36/41/3 35/40/3 40/35/3
f 43/6/7 44/34/7 40/35/7
f 39/3/4 34/43/4 33/42/4
f 46/45/1 48/52/1 47/46/1
f 49/48/2 52/51/2 51/49/2
f 52/51/3 49/48/3 47/46/3
f 50/50/4 51/49/4 46/45/4
f 51/49/9 52/51/9 48/52/9
f 49/48/10 50/50/10 45/47/10
f 73/53/7 56/65/7 89/54/7
f 90/56/8 60/72/8 74/57/8
f 62/59/11 64/80/25 57/60/12
f 87/62/4 88/89/4 59/63/4
f 74/57/9 60/72/9 56/65/9
f 69/66/5 58/93/5 53/67/5
f 80/69/4 63/84/4 61/70/4
f 60/72/14 64/80/26 62/59/15
f 82/73/8 66/81/8 75/74/8
f 78/76/7 65/79/7 81/77/7
f 62/59/7 55/61/7 81/77/7
f 62/59/7 65/79/7 89/54/7
f 64/80/8 60/72/8 90/56/8
f 64/80/8 66/81/8 82/73/8
f 61/70/7 71/91/7 83/82/7
f 84/83/8 72/94/8 63/84/8
f 77/85/5 69/66/5 67/68/5
f 59/63/9 70/92/9 68/87/9
f 91/88/8 70/92/8 59/63/8
f 54/64/7 68/87/7 92/90/7
f 57/60/5 77/85/5 76/86/5
f 93/58/17 91/88/17 92/90/17
f 71/91/3 72/94/3 84/83/3
f 70/92/9 74/57/9 73/53/9
f 93/58/8 74/57/8 70/92/8
f 68/87/7 73/53/7 94/55/7
f 69/66/8 77/85/8 86/75/8
f 83/82/7 85/78/7 76/86/7
f 58/93/8 69/66/8 84/83/8
f 79/71/7 83/82/7 67/68/7
f 85/78/7 81/77/7 55/61/7
f 77/85/8 57/60/8 82/73/8
f 58/93/4 80/69/4 79/71/4
f 91/88/3 72/94/3 71/91/3
f 83/82/18 84/83/18 86/75/18
f 87/62/7 92/90/7 71/91/7
f 72/94/8 91/88/8 88/89/8
f 61/70/4 63/84/4 88/89/4
f 66/81/8 90/56/8 93/58/8
f 94/55/7 89/54/7 65/79/7
f 93/58/4 94/55/4 78/76/4
f 86/75/4 75/74/4 78/76/4
f 103/95/7 96/103/7 98/96/7
f 105/98/8 106/101/8 102/99/8
f 106/101/19 99/104/27 97/102/20
f 105/98/4 101/100/4 96/103/4
f 101/100/10 102/99/10 98/96/10
f 99/104/6 100/106/6 95/105/6
f 95/105/4 100/106/4 105/98/4
f 98/96/22 102/99/28 106/101/23
f 99/104/8 106/101/8 105/98/8
f 103/95/7 104/97/7 97/102/7
