# Blender v2.92.0 OBJ File: ''
# www.blender.org
mtllib Piso.mtl
o Plane.181_Plane.086
v 0.024128 0.011759 -0.026718
v 7.789455 0.011759 -0.026718
v 0.024128 0.011758 -6.136948
v 7.789455 0.011758 -6.136948
v 0.024128 0.011759 -1.776535
v 7.789455 0.011759 -1.776535
v 7.789455 0.011758 -3.274109
v 0.024128 0.011758 -3.274109
v 0.024128 0.211595 -1.776535
v 0.024128 0.211596 -0.026718
v 7.789455 0.211596 -0.026718
v 7.789455 0.211595 -3.274109
v 7.789455 0.211595 -6.136948
v 0.024128 0.211595 -6.136948
v 0.024128 0.211595 -3.274109
v 7.789455 0.211595 -1.776535
v 6.287537 -0.442260 -6.136948
v 7.789455 -0.442260 -6.136948
v 6.287537 -0.442260 -6.397327
v 7.789455 -0.442260 -6.397327
v 6.287537 0.011760 -6.397327
v 6.287537 0.011760 -6.136948
v 7.789455 0.011760 -6.136948
v 7.789455 0.011760 -6.397327
vt 0.284899 1.664282
vt 2.339212 -3.907951
vt 2.339212 1.664282
vt 3.413837 1.664282
vt 4.669469 -3.907951
vt 4.669469 1.664282
vt 3.413837 -3.907951
vt -2.045358 1.664284
vt -4.099668 -3.907951
vt -2.045356 -3.907951
vt 0.284902 1.664284
vt -0.970730 -3.907951
vt 0.284902 -3.907951
vt -0.970730 1.664284
vt 5.099668 2.806876
vt 4.956268 1.732249
vt 5.099668 1.732249
vt 4.956268 0.476619
vt 5.099668 0.476619
vt 4.669471 -3.907951
vt 4.812869 1.664284
vt 4.669470 1.664284
vt 4.812869 -3.907951
vt 4.956268 1.664282
vt 4.812869 1.664282
vt 5.099668 -1.853641
vt 4.956269 -3.907951
vt 5.099668 -3.907951
vt 5.099668 -0.779013
vt 4.956269 -1.853641
vt 5.099668 4.861187
vt 4.956268 2.806876
vt 5.099668 0.476619
vt 4.956269 -0.779013
vt 0.284899 -3.907951
vt -4.099668 1.664284
vt 4.812870 -3.907951
vt 4.956269 -3.907951
vt 4.956268 4.861187
vt 4.956269 0.476619
vt 0.000000 1.000000
vt 1.000000 0.000000
vt 0.000000 0.000000
vt 1.000000 0.000000
vt 0.000000 1.000000
vt 0.000000 0.000000
vt 1.000000 1.000000
vt 1.000000 1.000000
vn 0.0000 -1.0000 0.0000
vn 0.0000 1.0000 -0.0000
vn 1.0000 0.0000 0.0000
vn 0.0000 0.0000 -1.0000
vn 0.0000 0.0000 1.0000
vn -1.0000 0.0000 0.0000
usemtl MaderaPuente
s 1
f 3/1/1 7/2/1 8/3/1
f 5/4/1 2/5/1 1/6/1
f 8/3/1 6/7/1 5/4/1
f 12/8/2 14/9/2 15/10/2
f 11/11/2 9/12/2 10/13/2
f 16/14/2 15/10/2 9/12/2
f 7/15/3 16/16/3 6/17/3
f 6/17/3 11/18/3 2/19/3
f 3/20/4 13/21/4 4/22/4
f 2/23/5 10/24/5 1/25/5
f 8/26/6 14/27/6 3/28/6
f 5/29/6 15/30/6 8/26/6
f 4/31/3 12/32/3 7/15/3
f 1/33/6 9/34/6 5/29/6
f 3/1/1 4/35/1 7/2/1
f 5/4/1 6/7/1 2/5/1
f 8/3/1 7/2/1 6/7/1
f 12/8/2 13/36/2 14/9/2
f 11/11/2 16/14/2 9/12/2
f 16/14/2 12/8/2 15/10/2
f 7/15/3 12/32/3 16/16/3
f 6/17/3 16/16/3 11/18/3
f 3/20/4 14/37/4 13/21/4
f 2/23/5 11/38/5 10/24/5
f 8/26/6 15/30/6 14/27/6
f 5/29/6 9/34/6 15/30/6
f 4/31/3 13/39/3 12/32/3
f 1/33/6 10/40/6 9/34/6
usemtl MaderaPiso
f 19/41/1 18/42/1 17/43/1
f 23/44/2 21/45/2 22/46/2
f 20/47/3 23/44/3 18/42/3
f 17/43/6 21/45/6 19/41/6
f 19/41/4 24/48/4 20/47/4
f 18/42/5 22/46/5 17/43/5
f 19/41/1 20/47/1 18/42/1
f 23/44/2 24/48/2 21/45/2
f 20/47/3 24/48/3 23/44/3
f 17/43/6 22/46/6 21/45/6
f 19/41/4 21/45/4 24/48/4
f 18/42/5 23/44/5 22/46/5
