# Blender v2.92.0 OBJ File: 'CasaPequeña.blend'
# www.blender.org
mtllib CP_Concreto.mtl
o Cube.017_Cube.023
v 4.526806 -0.109129 -1.596030
v 4.526806 0.271807 -1.596030
v 4.526806 -0.109129 -1.225715
v 4.526806 0.271807 -1.225715
v 4.144373 -0.109129 -1.596030
v 4.144373 0.271807 -1.596030
v 4.144373 -0.109129 -1.225714
v 4.144373 0.271807 -1.225714
vt 0.625000 0.000000
vt 0.375000 0.250000
vt 0.375000 0.000000
vt 0.625000 0.250000
vt 0.375000 0.500000
vt 0.625000 0.500000
vt 0.375000 0.750000
vt 0.625000 0.750000
vt 0.375000 1.000000
vt 0.125000 0.750000
vt 0.125000 0.500000
vt 0.875000 0.500000
vt 0.625000 1.000000
vt 0.875000 0.750000
vn 1.0000 0.0000 0.0000
vn 0.0000 0.0000 1.0000
vn -1.0000 0.0000 0.0000
vn -0.0000 0.0000 -1.0000
vn -0.0000 -1.0000 -0.0000
vn 0.0000 1.0000 0.0000
usemtl Concrete_wood_sheet
s 1
f 2/1/1 3/2/1 1/3/1
f 4/4/2 7/5/2 3/2/2
f 8/6/3 5/7/3 7/5/3
f 6/8/4 1/9/4 5/7/4
f 7/5/5 1/10/5 3/11/5
f 4/12/6 6/8/6 8/6/6
f 2/1/1 4/4/1 3/2/1
f 4/4/2 8/6/2 7/5/2
f 8/6/3 6/8/3 5/7/3
f 6/8/4 2/13/4 1/9/4
f 7/5/5 5/7/5 1/10/5
f 4/12/6 2/14/6 6/8/6
o Cube.018_Cube.024
v 4.526805 -0.109130 -3.866711
v 4.526805 0.271807 -3.866711
v 4.526805 -0.109130 -3.496396
v 4.526805 0.271807 -3.496396
v 4.144372 -0.109130 -3.866711
v 4.144372 0.271807 -3.866711
v 4.144373 -0.109130 -3.496396
v 4.144373 0.271807 -3.496396
vt 0.625000 0.000000
vt 0.375000 0.250000
vt 0.375000 0.000000
vt 0.625000 0.250000
vt 0.375000 0.500000
vt 0.625000 0.500000
vt 0.375000 0.750000
vt 0.625000 0.750000
vt 0.375000 1.000000
vt 0.125000 0.750000
vt 0.125000 0.500000
vt 0.875000 0.500000
vt 0.625000 1.000000
vt 0.875000 0.750000
vn 1.0000 0.0000 -0.0000
vn 0.0000 0.0000 1.0000
vn -1.0000 0.0000 0.0000
vn 0.0000 0.0000 -1.0000
vn 0.0000 -1.0000 -0.0000
vn 0.0000 1.0000 0.0000
usemtl Concrete_wood_sheet
s 1
f 10/15/7 11/16/7 9/17/7
f 12/18/8 15/19/8 11/16/8
f 16/20/9 13/21/9 15/19/9
f 14/22/10 9/23/10 13/21/10
f 15/19/11 9/24/11 11/25/11
f 12/26/12 14/22/12 16/20/12
f 10/15/7 12/18/7 11/16/7
f 12/18/8 16/20/8 15/19/8
f 16/20/9 14/22/9 13/21/9
f 14/22/10 10/27/10 9/23/10
f 15/19/11 13/21/11 9/24/11
f 12/26/12 10/28/12 14/22/12
o Cube.019_Cube.025
v 4.526804 -0.109130 -6.904155
v 4.526804 0.271807 -6.904155
v 4.526804 -0.109130 -6.533839
v 4.526804 0.271807 -6.533839
v 4.144372 -0.109130 -6.904155
v 4.144372 0.271807 -6.904155
v 4.144372 -0.109130 -6.533839
v 4.144372 0.271807 -6.533839
vt 0.625000 0.000000
vt 0.375000 0.250000
vt 0.375000 0.000000
vt 0.625000 0.250000
vt 0.375000 0.500000
vt 0.625000 0.500000
vt 0.375000 0.750000
vt 0.625000 0.750000
vt 0.375000 1.000000
vt 0.125000 0.750000
vt 0.125000 0.500000
vt 0.875000 0.500000
vt 0.625000 1.000000
vt 0.875000 0.750000
vn 1.0000 0.0000 -0.0000
vn 0.0000 0.0000 1.0000
vn -1.0000 0.0000 0.0000
vn 0.0000 0.0000 -1.0000
vn 0.0000 -1.0000 -0.0000
vn 0.0000 1.0000 0.0000
usemtl Concrete_wood_sheet
s 1
f 18/29/13 19/30/13 17/31/13
f 20/32/14 23/33/14 19/30/14
f 24/34/15 21/35/15 23/33/15
f 22/36/16 17/37/16 21/35/16
f 23/33/17 17/38/17 19/39/17
f 20/40/18 22/36/18 24/34/18
f 18/29/13 20/32/13 19/30/13
f 20/32/14 24/34/14 23/33/14
f 24/34/15 22/36/15 21/35/15
f 22/36/16 18/41/16 17/37/16
f 23/33/17 21/35/17 17/38/17
f 20/40/18 18/42/18 22/36/18
o Cube.020_Cube.026
v 0.279828 -0.109130 -6.904153
v 0.279828 0.271807 -6.904153
v 0.279828 -0.109130 -6.533838
v 0.279828 0.271807 -6.533838
v -0.102605 -0.109130 -6.904153
v -0.102605 0.271807 -6.904153
v -0.102605 -0.109130 -6.533838
v -0.102605 0.271807 -6.533838
vt 0.625000 0.000000
vt 0.375000 0.250000
vt 0.375000 0.000000
vt 0.625000 0.250000
vt 0.375000 0.500000
vt 0.625000 0.500000
vt 0.375000 0.750000
vt 0.625000 0.750000
vt 0.375000 1.000000
vt 0.125000 0.750000
vt 0.125000 0.500000
vt 0.875000 0.500000
vt 0.625000 1.000000
vt 0.875000 0.750000
vn 1.0000 0.0000 -0.0000
vn 0.0000 0.0000 1.0000
vn -1.0000 0.0000 0.0000
vn 0.0000 0.0000 -1.0000
vn 0.0000 -1.0000 -0.0000
vn 0.0000 1.0000 0.0000
usemtl Concrete_wood_sheet
s 1
f 26/43/19 27/44/19 25/45/19
f 28/46/20 31/47/20 27/44/20
f 32/48/21 29/49/21 31/47/21
f 30/50/22 25/51/22 29/49/22
f 31/47/23 25/52/23 27/53/23
f 28/54/24 30/50/24 32/48/24
f 26/43/19 28/46/19 27/44/19
f 28/46/20 32/48/20 31/47/20
f 32/48/21 30/50/21 29/49/21
f 30/50/22 26/55/22 25/51/22
f 31/47/23 29/49/23 25/52/23
f 28/54/24 26/56/24 30/50/24
o Cube.021_Cube.027
v -4.089487 -0.109130 -6.904152
v -4.089487 0.271807 -6.904152
v -4.089486 -0.109130 -6.533836
v -4.089486 0.271807 -6.533836
v -4.471919 -0.109130 -6.904152
v -4.471919 0.271807 -6.904152
v -4.471919 -0.109130 -6.533836
v -4.471919 0.271807 -6.533836
vt 0.625000 0.000000
vt 0.375000 0.250000
vt 0.375000 0.000000
vt 0.625000 0.250000
vt 0.375000 0.500000
vt 0.625000 0.500000
vt 0.375000 0.750000
vt 0.625000 0.750000
vt 0.375000 1.000000
vt 0.125000 0.750000
vt 0.125000 0.500000
vt 0.875000 0.500000
vt 0.625000 1.000000
vt 0.875000 0.750000
vn 1.0000 0.0000 -0.0000
vn 0.0000 0.0000 1.0000
vn -1.0000 0.0000 0.0000
vn 0.0000 0.0000 -1.0000
vn 0.0000 -1.0000 -0.0000
vn 0.0000 1.0000 0.0000
usemtl Piedra
s 1
f 34/57/25 35/58/25 33/59/25
f 36/60/26 39/61/26 35/58/26
f 40/62/27 37/63/27 39/61/27
f 38/64/28 33/65/28 37/63/28
f 39/61/29 33/66/29 35/67/29
f 36/68/30 38/64/30 40/62/30
f 34/57/25 36/60/25 35/58/25
f 36/60/26 40/62/26 39/61/26
f 40/62/27 38/64/27 37/63/27
f 38/64/28 34/69/28 33/65/28
f 39/61/29 37/63/29 33/66/29
f 36/68/30 34/70/30 38/64/30
o Cube.022_Cube.028
v 1.185037 -1.435618 -4.987408
v 1.185037 0.457431 -4.987408
v 1.185040 -1.435620 6.222340
v 1.185040 0.457429 6.222340
v -4.415903 -1.435618 -4.987406
v -4.415903 0.457431 -4.987406
v -4.415899 -1.435620 6.222342
v -4.415899 0.457429 6.222342
v 1.185039 -1.435619 0.617466
v 1.185039 0.457430 0.617466
v -4.415901 -1.435619 0.617467
v -4.415901 0.457430 0.617468
v 4.472866 0.457430 0.617465
v 4.472867 0.457429 6.222339
v 4.472867 -1.435620 6.222339
v 4.472866 -1.435619 0.617464
vt -10.997000 10.278625
vt -13.734793 15.033592
vt -13.734793 10.278625
vt -10.997000 2.178345
vt 11.975708 -5.927626
vt 14.713501 -14.033592
vt 14.713501 -5.927626
vt -5.521412 10.278624
vt -2.783620 2.178345
vt -2.783620 10.278624
vt 11.975708 -5.927624
vt 3.875428 2.178345
vt 3.875436 -5.927624
vt -5.634513 -5.927624
vt -13.734793 2.178345
vt -13.734793 -5.927624
vt -5.634513 -14.033592
vt -13.734793 -14.033592
vt 11.975708 -14.033592
vt 3.875436 -14.033592
vt 11.975708 2.178342
vt 14.713501 2.178342
vt -10.996999 10.284315
vt -8.259206 2.178345
vt -8.259206 10.284315
vt -8.259206 10.284315
vt -5.521412 2.178345
vt -5.521412 10.284315
vt -0.879539 -14.033592
vt -2.783617 6.933320
vt -0.045825 2.178345
vt -0.045825 6.933320
vt -0.879546 -5.927624
vt -10.997000 15.033592
vt -13.734793 2.178345
vt 11.975708 -14.033592
vt -5.521412 2.178345
vt 11.975708 2.178345
vt -5.634513 2.178345
vt -10.996999 2.178345
vt -8.259206 2.178345
vt -0.879539 -5.927624
vt -2.783617 2.178345
vt -0.879546 -14.033592
vn 0.0000 0.0000 1.0000
vn -1.0000 0.0000 0.0000
vn -0.0000 0.0000 -1.0000
vn -0.0000 -1.0000 -0.0000
vn 0.0000 1.0000 0.0000
vn 1.0000 -0.0000 -0.0000
usemtl Concrete_wood_sheet
s 1
f 43/71/31 54/72/31 44/73/31
f 44/73/31 47/74/31 43/71/31
f 52/75/32 45/76/32 51/77/32
f 46/78/33 41/79/33 45/80/33
f 51/81/34 41/82/34 49/83/34
f 50/84/35 46/85/35 52/86/35
f 44/87/35 52/86/35 48/88/35
f 47/89/34 49/83/34 43/90/34
f 48/91/32 51/77/32 47/92/32
f 42/93/36 49/94/36 41/95/36
f 53/96/36 55/97/36 56/98/36
f 49/83/34 55/99/34 43/90/34
f 50/100/33 56/101/33 49/102/33
f 44/87/35 53/103/35 50/84/35
f 43/71/31 55/104/31 54/72/31
f 44/73/31 48/105/31 47/74/31
f 52/75/32 46/106/32 45/76/32
f 46/78/33 42/107/33 41/79/33
f 51/81/34 45/108/34 41/82/34
f 50/84/35 42/109/35 46/85/35
f 44/87/35 50/84/35 52/86/35
f 47/89/34 51/81/34 49/83/34
f 48/91/32 52/75/32 51/77/32
f 42/93/36 50/110/36 49/94/36
f 53/96/36 54/111/36 55/97/36
f 49/83/34 56/112/34 55/99/34
f 50/100/33 53/113/33 56/101/33
f 44/87/35 54/114/35 53/103/35
o Cube.047_Cube.044
v 0.378168 7.041003 4.658524
v 0.507485 7.707970 4.529206
v 0.378168 7.041003 5.370771
v 0.507486 7.707970 5.500090
v -0.334080 7.041003 4.658524
v -0.463398 7.707970 4.529206
v -0.334080 7.041003 5.370771
v -0.463397 7.707970 5.500090
v 0.378168 7.707970 4.658524
v 0.378168 7.707970 5.370771
v -0.334080 7.707970 5.370771
v -0.334080 7.707970 4.658524
vt 1.553102 -0.309025
vt 3.000000 -1.854154
vt 3.000000 -0.309025
vt 0.106203 2.781231
vt 1.553102 1.236103
vt 1.553102 2.781231
vt 0.106203 1.236103
vt 1.553102 -0.309025
vt 0.106203 -0.309026
vt 1.553102 -1.854154
vt -0.454872 1.797178
vt -2.000000 0.252050
vt -0.454872 0.252050
vt -2.000000 -1.854154
vt -0.174334 -1.573616
vt -1.719462 -1.573616
vt 0.106203 0.252050
vt 0.106203 -1.854154
vt -2.000000 0.252050
vt -0.174334 -0.028488
vt -1.719462 -0.028488
vt 1.553102 -1.854154
vt 0.106203 -1.854154
vt -2.000000 1.797178
vn 1.0000 0.0000 -0.0000
vn 0.0000 -0.0000 1.0000
vn -1.0000 0.0000 0.0000
vn 0.0000 0.0000 -1.0000
vn 0.0000 -1.0000 0.0000
usemtl Concrete_wood_sheet
s 1
f 65/115/37 59/116/37 57/117/37
f 66/118/38 63/119/38 59/120/38
f 67/121/39 61/122/39 63/119/39
f 68/123/40 57/124/40 61/122/40
f 63/125/41 57/126/41 59/127/41
f 58/128/41 66/129/41 65/130/41
f 64/131/41 66/129/41 60/132/41
f 62/133/41 67/134/41 64/131/41
f 58/128/41 68/135/41 62/133/41
f 65/115/37 66/136/37 59/116/37
f 66/118/38 67/121/38 63/119/38
f 67/121/39 68/123/39 61/122/39
f 68/123/40 65/137/40 57/124/40
f 63/125/41 61/138/41 57/126/41
f 58/128/41 60/132/41 66/129/41
f 64/131/41 67/134/41 66/129/41
f 62/133/41 68/135/41 67/134/41
f 58/128/41 65/130/41 68/135/41
o Cube.048_Cube.046
v 0.378166 7.041003 0.415966
v 0.507484 7.707970 0.286648
v 0.378167 7.041003 1.128213
v 0.507484 7.707970 1.257531
v -0.334081 7.041003 0.415966
v -0.463399 7.707970 0.286648
v -0.334081 7.041003 1.128214
v -0.463399 7.707970 1.257531
v 0.378166 7.707970 0.415966
v 0.378167 7.707970 1.128213
v -0.334081 7.707970 1.128214
v -0.334081 7.707970 0.415966
v 0.378166 7.707969 0.415966
v 0.378167 7.707969 1.128213
v -0.334081 7.707969 1.128214
v -0.334081 7.707969 0.415966
vt 1.553102 2.781232
vt 3.000000 1.236103
vt 3.000000 2.781232
vt 1.553102 1.236103
vt 3.000000 -0.309026
vt 0.106203 2.781232
vt 1.553102 1.236103
vt 1.553102 2.781232
vt 0.106203 1.236103
vt 1.553102 -0.309026
vt -0.454872 1.797177
vt -2.000000 0.252049
vt -0.454872 0.252049
vt 0.106203 -1.854154
vt -1.719462 -1.573617
vt -2.000000 -1.854154
vt 0.106203 0.252049
vt -0.174334 -1.573617
vt -2.000000 0.252049
vt -0.174334 -0.028489
vt -1.719462 -0.028489
vt 1.651332 -1.854154
vt 0.106203 -0.309025
vt 0.106204 -1.854154
vt 1.553102 -0.309026
vt 0.106203 -0.309026
vt -2.000000 1.797177
vt 1.651332 -0.309025
vn 1.0000 -0.0000 -0.0000
vn 0.0000 -0.0000 1.0000
vn -1.0000 0.0000 0.0000
vn -0.0000 0.0000 -1.0000
vn 0.0000 -1.0000 -0.0000
vn 0.0000 1.0000 -0.0000
usemtl Concrete_wood_sheet
s 1
f 77/139/42 71/140/42 69/141/42
f 78/142/43 75/143/43 71/140/43
f 79/144/44 73/145/44 75/146/44
f 80/147/45 69/148/45 73/145/45
f 75/149/46 69/150/46 71/151/46
f 72/152/46 77/153/46 70/154/46
f 76/155/46 78/156/46 72/152/46
f 74/157/46 79/158/46 76/155/46
f 70/154/46 80/159/46 74/157/46
f 82/160/47 84/161/47 83/162/47
f 77/139/42 78/142/42 71/140/42
f 78/142/43 79/163/43 75/143/43
f 79/144/44 80/147/44 73/145/44
f 80/147/45 77/164/45 69/148/45
f 75/149/46 73/165/46 69/150/46
f 72/152/46 78/156/46 77/153/46
f 76/155/46 79/158/46 78/156/46
f 74/157/46 80/159/46 79/158/46
f 70/154/46 77/153/46 80/159/46
f 82/160/47 81/166/47 84/161/47
