# Blender v2.92.0 OBJ File: 'CasaPequeña.blend'
# www.blender.org
mtllib CP_PisoInt.mtl
o Plane.004
v 4.472866 0.724413 0.630053
v -4.415900 0.724413 0.630056
v 4.472868 0.724412 6.234927
v -4.415898 0.724412 6.234930
v 4.472866 0.457430 6.222339
v 4.472864 0.457431 0.617466
v -4.415902 0.457431 0.617468
v -4.415900 0.457430 6.222342
vt 0.046850 0.953150
vt 1.593700 -1.500000
vt 0.046850 -1.500000
vt 0.046850 0.953149
vt -1.500000 -1.500000
vt -1.500000 0.953149
vt 1.814913 -1.496526
vt 1.741230 0.046850
vt 1.814913 0.050324
vt 1.814913 0.053798
vt 1.888596 1.597175
vt 1.888596 0.050324
vt 1.667466 -1.500000
vt 1.593701 0.953149
vt 1.667466 0.953150
vt 1.667466 -1.500000
vt 1.741230 0.953150
vt 1.741230 -1.500000
vt 1.593700 0.953150
vt 0.046850 -1.500000
vt 1.741230 -1.500000
vt 1.814913 1.600649
vt 1.593701 -1.500000
vt 1.667466 0.953150
vn 0.0000 1.0000 0.0000
vn -0.0000 -1.0000 -0.0000
vn -1.0000 0.0000 0.0000
vn 1.0000 -0.0000 -0.0000
vn 0.0000 -0.0471 0.9989
vn -0.0000 0.0471 -0.9989
usemtl Wood_Wall_Slits_Variation_2
s 1
f 2/1/1 3/2/1 1/3/1
f 5/4/2 7/5/2 6/6/2
f 2/7/3 8/8/3 4/9/3
f 5/10/4 1/11/4 3/12/4
f 4/13/5 5/14/5 3/15/5
f 6/16/6 2/17/6 1/18/6
f 2/1/1 4/19/1 3/2/1
f 5/4/2 8/20/2 7/5/2
f 2/7/3 7/21/3 8/8/3
f 5/10/4 6/22/4 1/11/4
f 4/13/5 8/23/5 5/14/5
f 6/16/6 7/24/6 2/17/6
o Plane.005_Plane.006
v 1.185036 0.724413 -4.974821
v -4.415902 0.724413 -4.974819
v 1.185038 0.724412 0.630053
v -4.415900 0.724412 0.630055
v 1.185036 0.457430 0.617466
v 1.185035 0.457431 -4.987408
v -4.415904 0.457431 -4.987406
v -4.415902 0.457430 0.617467
vt 1.591529 2.500000
vt 0.045765 0.953149
vt 0.045765 2.500000
vt 0.045764 0.953150
vt -1.500000 2.500000
vt 0.045764 2.500000
vt 1.962360 -1.500000
vt 1.888596 0.045764
vt 1.962360 0.045765
vt 1.888596 0.045766
vt 1.962360 1.591529
vt 1.962360 0.045765
vt 1.814913 0.053799
vt 1.741230 1.597175
vt 1.814913 1.600649
vt 1.814913 -1.496526
vt 1.888596 0.046851
vt 1.888596 -1.500000
vt 1.591530 0.953149
vt -1.500000 0.953150
vt 1.888596 -1.500000
vt 1.888596 1.591530
vt 1.741230 0.050324
vt 1.814913 0.050324
vn 0.0000 1.0000 0.0000
vn -0.0000 -1.0000 -0.0000
vn 0.0000 -0.0471 0.9989
vn -0.0000 0.0471 -0.9989
vn -1.0000 0.0000 0.0000
vn 1.0000 -0.0000 -0.0000
usemtl Wood_Wall_Slits_Variation_2
s 1
f 10/25/7 11/26/7 9/27/7
f 13/28/8 15/29/8 14/30/8
f 12/31/9 13/32/9 11/33/9
f 14/34/10 10/35/10 9/36/10
f 10/37/11 16/38/11 12/39/11
f 13/40/12 9/41/12 11/42/12
f 10/25/7 12/43/7 11/26/7
f 13/28/8 16/44/8 15/29/8
f 12/31/9 16/45/9 13/32/9
f 14/34/10 15/46/10 10/35/10
f 10/37/11 15/47/11 16/38/11
f 13/40/12 14/48/12 9/41/12
o Cube.006_Cube.007
v 1.185036 3.463829 -6.857784
v 1.185036 3.641585 -6.857784
v 1.185040 3.463827 6.234932
v 1.185040 3.641583 6.234932
v -4.415901 3.463829 -6.857782
v -4.415901 3.641585 -6.857782
v -4.415897 3.463827 6.234934
v -4.415897 3.641583 6.234934
v 1.185039 3.463828 0.630053
v 1.185039 3.641584 0.630053
v -4.415899 3.463828 0.630055
v -4.415899 3.641584 0.630055
v 4.472868 3.641584 0.630052
v 4.472870 3.641583 6.234931
v 4.472870 3.463827 6.234931
v 4.472868 3.463828 0.630052
v 4.472868 3.463828 0.630052
v 4.472866 3.463829 -6.857785
v 4.472866 3.641585 -6.857785
v 4.472868 3.641584 0.630052
vt 2.461169 1.665280
vt 2.422339 2.383508
vt 2.422339 1.665280
vt 2.461169 0.441754
vt 2.383508 0.135719
vt 2.422339 -1.500000
vt 2.422339 0.135719
vt 2.422339 0.441753
vt 2.461169 -0.781773
vt 2.461169 0.441753
vt 2.383507 -0.275612
vt 1.159981 1.360108
vt 1.159981 -0.275612
vt -0.276474 -0.275612
vt -1.500000 1.360108
vt -1.500000 -0.275612
vt -0.276473 -1.500000
vt -1.500000 -1.500000
vt 2.383507 -1.500000
vt 1.159981 -1.500000
vt 2.383508 1.360107
vt 2.422339 1.360107
vt 2.422339 -0.781773
vt 2.461169 -1.500000
vt 2.461169 1.360108
vt 2.500000 0.135720
vt 2.500000 1.360108
vt 0.441753 -1.500000
vt -1.500000 2.078335
vt -1.461169 1.360107
vt -1.461169 2.078335
vt 0.441754 -0.275612
vt 2.461169 0.135720
vt 2.500000 -1.500000
vt 2.500000 0.135720
vt -1.422338 1.360108
vt -1.461169 2.078336
vt -1.461169 1.360108
vt 0.441754 1.360108
vt -0.276474 1.360108
vt 0.441753 -0.275612
vt 2.461169 2.383508
vt 2.422339 0.441754
vt 2.383508 -1.500000
vt 2.383507 1.360108
vt 2.422339 -1.500000
vt 2.461169 0.135720
vt 0.441753 -0.275612
vt -1.500000 1.360107
vt 0.441754 -1.500000
vt 2.461169 -1.500000
vt -1.422338 2.078336
vt 0.441754 -0.275612
vt 0.441753 1.360108
vn 0.0000 0.0000 1.0000
vn -1.0000 -0.0000 0.0000
vn -0.0000 0.0000 -1.0000
vn -0.0000 -1.0000 -0.0000
vn 0.0000 1.0000 0.0000
vn 1.0000 0.0000 -0.0000
usemtl Wood_Wall_Slits_Variation_2
s 1
f 19/49/13 30/50/13 20/51/13
f 20/51/13 23/52/13 19/49/13
f 28/53/14 21/54/14 27/55/14
f 22/56/15 17/57/15 21/58/15
f 27/59/16 17/60/16 25/61/16
f 26/62/17 22/63/17 28/64/17
f 20/65/17 28/64/17 24/66/17
f 23/67/16 25/61/16 19/68/16
f 24/69/14 27/55/14 23/70/14
f 18/71/15 34/72/15 17/57/15
f 29/73/18 31/74/18 32/75/18
f 25/61/16 31/76/16 19/68/16
f 26/77/15 32/78/15 25/79/15
f 20/65/17 29/80/17 26/62/17
f 35/81/18 33/82/18 34/83/18
f 25/84/13 36/85/13 26/86/13
f 26/62/17 35/87/17 18/88/17
f 17/60/16 33/89/16 25/61/16
f 19/49/13 31/90/13 30/50/13
f 20/51/13 24/91/13 23/52/13
f 28/53/14 22/92/14 21/54/14
f 22/56/15 18/71/15 17/57/15
f 27/59/16 21/93/16 17/60/16
f 26/62/17 18/88/17 22/63/17
f 20/65/17 26/62/17 28/64/17
f 23/67/16 27/59/16 25/61/16
f 24/69/14 28/53/14 27/55/14
f 18/71/15 35/94/15 34/72/15
f 29/73/18 30/95/18 31/74/18
f 25/61/16 32/96/16 31/76/16
f 26/77/15 29/97/15 32/78/15
f 20/65/17 30/98/17 29/80/17
f 35/81/18 36/99/18 33/82/18
f 25/84/13 33/100/13 36/85/13
f 26/62/17 36/101/17 35/87/17
f 17/60/16 34/102/16 33/89/16
